<svg height="512" viewBox="0 0 64 64" width="512" xmlns="http://www.w3.org/2000/svg"><path d="m32.429 39.664-16.666-16.664c-12.497-12.5 4.17-29.164 16.666-16.668 12.686-12.686 29.352 3.98 16.671 16.668z" fill="#ee6c4d"/><path d="m45.669 2.337c-3.966-1.269-8.841-.4-13.24 3.995-12.496-12.496-29.163 4.168-16.666 16.668l6.351 6.352a37.475 37.475 0 0 0 23.555-27.015z" fill="#f98e5f"/><circle cx="18.434" cy="9.306" fill="#fffaf8" r="1.172"/><circle cx="20.275" cy="6.924" fill="#fffaf8" r=".826"/><path d="m40.75 16.214h-5.491v-5.491h-5.547v5.491h-5.491v5.547h5.491v5.492h5.547v-5.492h5.491z" fill="#ccd7dd"/><path d="m39.4 16.214h-4.141v-5.491h-5.547v5.491h-5.491v5.547h5.491v3.721a37.583 37.583 0 0 0 9.688-9.268z" fill="#e4ebef"/><path d="m36.958 57.964h12.299v5.179h-12.299z" fill="#3d5a80"/><path d="m26.736 57.964h-9.893v-4.571l-12.988-15.64.245-10.975a3.024 3.024 0 0 1 3.023-2.957 3.024 3.024 0 0 1 3.024 3.043l-.035 5.957 5.444 6.062a2.506 2.506 0 0 1 .1-3.46 2.505 2.505 0 0 1 3.595.073l6.908 7.416a2.166 2.166 0 0 1 .582 1.477v13.575" fill="#f4bc8e"/><path d="m15.629 57.964h12.299v5.179h-12.299z" fill="#3d5a80" transform="matrix(-1 0 0 -1 43.557 121.107)"/><path d="m18.834 22.637c-8.4-8.4-3.614-18.677 4.22-20.717-9.5-.215-16.749 11.621-7.291 21.08l16.666 16.664 1.716-1.716z" fill="#fffaf8"/><path d="m19.986 56.736v-4.572l-12.586-15.157a1.678 1.678 0 0 1 -.388-1.107l.23-10.346a3.008 3.008 0 0 1 .536-1.654 2.7 2.7 0 0 0 -2.038.312 3.406 3.406 0 0 0 -1.648 2.888l-.237 10.653 12.988 15.64v4.571h9.893v-1.228z" fill="#d88d68"/><path d="m38.15 57.964h9.892v-4.571l12.989-15.64-.244-10.975a3.025 3.025 0 0 0 -3.024-2.957 3.024 3.024 0 0 0 -3.024 3.043l.036 5.957-5.445 6.062a2.5 2.5 0 0 0 -.1-3.46 2.5 2.5 0 0 0 -3.594.073l-6.909 7.416a2.165 2.165 0 0 0 -.581 1.477v13.575" fill="#f4bc8e"/><path d="m44.9 56.736v-4.572l12.587-15.157a1.683 1.683 0 0 0 .387-1.111l-.23-10.346a3.016 3.016 0 0 0 -.536-1.653 2.7 2.7 0 0 1 2.037.312 3.405 3.405 0 0 1 1.649 2.891l.237 10.652-12.989 15.641v4.571h-9.892v-1.228z" fill="#d88d68"/><g fill="#293241"><path d="m24.221 22.76h4.491v4.494a1 1 0 0 0 1 1h5.547a1 1 0 0 0 1-1v-4.494h4.491a1 1 0 0 0 1-1v-5.545a1 1 0 0 0 -1-1h-4.491v-4.492a1 1 0 0 0 -1-1h-5.547a1 1 0 0 0 -1 1v4.492h-4.491a1 1 0 0 0 -1 1v5.545a1 1 0 0 0 1 1zm1-5.545h4.491a1 1 0 0 0 1-1v-4.492h3.547v4.492a1 1 0 0 0 1 1h4.491v3.545h-4.491a1 1 0 0 0 -1 1v4.494h-3.547v-4.494a1 1 0 0 0 -1-1h-4.491z"/><path d="m57.764 22.821a4.025 4.025 0 0 0 -4.025 4.049l.033 5.571-3.063 3.419a3.5 3.5 0 0 0 -.771-1.147 3.431 3.431 0 0 0 -2.538-1.013 3.473 3.473 0 0 0 -2.494 1.114l-6.906 7.415a3.154 3.154 0 0 0 -.852 2.159v12.577h-.191a1 1 0 0 0 -1 1v5.178a1 1 0 0 0 1 1h12.3a1 1 0 0 0 1-1v-5.178a1 1 0 0 0 -1-1h-10.108v-12.577a1.164 1.164 0 0 1 .314-.795l6.908-7.416a1.5 1.5 0 0 1 1.071-.478 1.636 1.636 0 0 1 1.089.435 1.5 1.5 0 0 1 .057 2.078l-4.788 5.3 1.484 1.341 4.052-4.482.012.011 6.172-6.89a1 1 0 0 0 .254-.673l-.035-5.957a2.025 2.025 0 0 1 2.025-2.037 2.036 2.036 0 0 1 2.023 1.98l.235 10.6-12.75 15.35a1 1 0 0 0 -.23.638v1.393h2v-1.031l12.758-15.364a1 1 0 0 0 .23-.661l-.243-10.974a4.048 4.048 0 0 0 -4.023-3.935zm-9.722 36.144h.215v3.178h-10.3v-3.178z"/><path d="m15.843 56.965h-.214a1 1 0 0 0 -1 1v5.178a1 1 0 0 0 1 1h12.3a1 1 0 0 0 1-1v-5.178a1 1 0 0 0 -1-1h-10.086v-3.572a1 1 0 0 0 -.231-.638l-12.75-15.355.238-10.6a2.036 2.036 0 0 1 2.023-1.98 2.023 2.023 0 0 1 2.024 2.037l-.035 5.957a1.006 1.006 0 0 0 .255.673l6.172 6.89.011-.01 4.05 4.482 1.484-1.341-4.788-5.3a1.5 1.5 0 0 1 .058-2.078 1.559 1.559 0 0 1 1.088-.435 1.5 1.5 0 0 1 1.072.478l6.909 7.417a1.162 1.162 0 0 1 .312.794v10.187h2v-10.183a3.153 3.153 0 0 0 -.85-2.158l-6.908-7.417a3.48 3.48 0 0 0 -2.5-1.113 3.438 3.438 0 0 0 -2.534 1.013 3.5 3.5 0 0 0 -.771 1.148l-3.064-3.42.033-5.571a4.024 4.024 0 0 0 -4.024-4.049 4.048 4.048 0 0 0 -4.017 3.935l-.246 10.974a1.012 1.012 0 0 0 .231.661l12.758 15.364zm10.893 2h.192v3.178h-10.3v-3.178z"/><path d="m15.056 23.705 16.666 16.666a1 1 0 0 0 1.414 0l16.664-16.666c4.049-4.049 5.656-9.039 4.41-13.692a12.479 12.479 0 0 0 -8.8-8.8c-4.378-1.171-9.066.187-12.981 3.738-6.473-5.863-14.078-4.698-18.412-.365-4.493 4.492-5.579 12.502 1.039 19.119zm.375-17.705a10.47 10.47 0 0 1 7.381-3.091c2.844 0 5.964 1.184 8.91 4.13a1 1 0 0 0 1.414 0c3.584-3.583 7.764-4.965 11.764-3.892a10.472 10.472 0 0 1 7.384 7.384c1.072 4-.31 8.178-3.892 11.76l-15.963 15.959-15.959-15.959c-5.953-5.953-4.712-12.618-1.039-16.291z"/></g></svg>