<svg id="Capa_1" enable-background="new 0 0 512 512" height="512" viewBox="0 0 512 512" width="512" xmlns="http://www.w3.org/2000/svg"><g><g><g><g clip-rule="evenodd" fill-rule="evenodd"><path d="m150 197.002c16.569 0 30 13.431 30 30s-13.431 30-30 30-30-13.431-30-30 13.431-30 30-30zm-89.286 74.999h-23.213c0-8.249-6.751-15-15.002-15-8.247 0-14.999 6.75-14.999 15v30.001c0 8.249 6.751 15 14.999 15 8.251 0 15.002-6.751 15.002-15h23.213c7.089 75.009 66.776 134.696 141.785 141.785v23.213c-8.25 0-15 6.75-15 15s6.75 15 15 15h30.001c8.25 0 15-6.75 15-15s-6.75-15-15-15v-23.214c75.009-7.089 134.696-66.776 141.785-141.785h23.214c0 8.249 6.751 15 15.002 15 8.247 0 14.999-6.75 14.999-15v-30.001c0-8.25-6.751-15-14.999-15-8.251 0-15.002 6.751-15.002 15h-23.214c-1.865-19.733-7.374-38.404-15.841-55.336-4.277-1.819-8.408-3.914-12.373-6.262h-36.973v-36.972c-3.859-6.515-7.034-13.482-9.426-20.805-19.903-12.197-42.723-20.099-67.172-22.41v-23.214c8.25 0 15-6.75 15-15s-6.75-15-15-15h-30.001c-8.25 0-15 6.75-15 15s6.75 15 15 15v23.214c-75.008 7.089-134.696 66.778-141.785 141.786zm119.285 22.499c24.853 0 45 20.147 45 45s-20.147 45-45 45-45-20.147-45-45c0-24.852 20.148-45 45-45zm37.5-59.998c0-12.426 10.074-22.5 22.5-22.5s22.5 10.074 22.5 22.5c0 12.427-10.074 22.5-22.5 22.5-12.427 0-22.5-10.074-22.5-22.5zm74.999 52.499c16.568 0 30 13.431 30 30 0 16.568-13.432 30-30 30-16.569 0-30-13.432-30-30 0-16.569 13.431-30 30-30z" fill="#9ce3bf"/><path d="m286.598 179.275c-6.522-12.401-10.915-25.733-13.065-39.5 9.152 3.486 17.895 7.8 26.138 12.851 2.392 7.322 5.567 14.29 9.426 20.805v36.972h36.973c3.964 2.348 8.096 4.443 12.373 6.262 4.315 8.628 7.861 17.708 10.548 27.149-9.962-2.449-19.617-6.102-28.764-10.911h-53.629z" fill="#52cd8d"/><path d="m96.033 186.748c6.383-7.725 13.488-14.83 21.213-21.213l-21.723-21.723c5.834-5.833 5.834-15.379 0-21.213-5.834-5.833-15.379-5.833-21.213 0l-21.214 21.214c-5.833 5.833-5.833 15.379 0 21.213 5.834 5.834 15.38 5.833 21.213 0z" fill="#52cd8d"/><path d="m96.033 387.254-21.722 21.722c-5.833-5.833-15.38-5.833-21.214.001-5.832 5.832-5.833 15.379.001 21.212l21.214 21.214c5.833 5.833 15.38 5.832 21.212 0 5.834-5.834 5.834-15.381.001-21.214l21.722-21.722c-7.725-6.383-14.831-13.489-21.214-21.213z" fill="#52cd8d"/><path d="m317.752 408.467 21.723 21.722c-5.834 5.833-5.834 15.379 0 21.213 5.833 5.833 15.379 5.833 21.213 0l21.214-21.214c5.833-5.834 5.833-15.379 0-21.213-5.834-5.833-15.38-5.833-21.213 0l-21.722-21.723c-6.385 7.727-13.49 14.832-21.215 21.215z" fill="#52cd8d"/><circle cx="179.999" cy="339.5" fill="#52cd8d" r="45"/><ellipse cx="150" cy="227.002" fill="#52cd8d" rx="30" ry="30" transform="matrix(.383 -.924 .924 .383 -117.125 278.714)"/><circle cx="239.999" cy="234.502" fill="#52cd8d" r="22.5"/><circle cx="292.498" cy="317.001" fill="#52cd8d" r="30"/><path d="m309.097 210.403h36.973c16.2 9.594 34.578 14.597 53.43 14.597 57.997 0 105-47.003 105-105s-47.003-105-105-105-105 47.003-105 105c0 18.847 4.996 37.223 14.597 53.431zm67.558-44.713-22.845-22.845 22.845-22.845-22.845-22.845 22.845-22.845 22.845 22.845 22.845-22.845 22.845 22.845-22.845 22.845 22.845 22.845-22.845 22.845-22.845-22.845z" fill="#a4d7f5"/><path d="m353.81 142.845 22.845 22.845 22.845-22.845 22.845 22.845 22.845-22.845-22.845-22.845 22.845-22.845-22.845-22.845-22.845 22.845-22.845-22.845-22.845 22.845 22.845 22.845z" fill="#d15573"/><path d="m60.714 272.001h-23.213c0-8.249-6.751-15-15.002-15-8.247 0-14.999 6.75-14.999 15v30.001c0 8.249 6.751 15 14.999 15 8.251 0 15.002-6.751 15.002-15h23.213c7.089 75.009 66.776 134.696 141.785 141.785-163.63-37.693-157.565-272.065 0-313.57-75.008 7.087-134.696 66.776-141.785 141.784z" fill="#52cd8d"/></g><g><path d="m275.409 190.215h-15v-15h15zm-30-14.999h-15v-15h15z" fill="#fff"/></g><path clip-rule="evenodd" d="m309.097 210.403h22.5v-36.972c-9.601-16.208-14.597-34.584-14.597-53.431 0-54.196 41.045-98.786 93.75-104.399-61.979-6.602-116.25 41.794-116.25 104.399 0 18.847 4.996 37.223 14.597 53.431z" fill="#6e91ef" fill-rule="evenodd"/></g><g><path d="m276.58 441.086-5.375-14.004c-12.643 4.852-25.903 7.96-39.412 9.236l-6.794.642v37.54h7.5c4.136 0 7.5 3.364 7.5 7.5 0 4.135-3.364 7.5-7.5 7.5h-30c-4.136 0-7.5-3.365-7.5-7.5 0-4.136 3.364-7.5 7.5-7.5h7.5v-37.539l-6.794-.642c-71.483-6.755-128.269-63.541-135.024-135.023l-.643-6.794h-37.537v7.5c0 4.136-3.365 7.5-7.502 7.5-4.135 0-7.499-3.364-7.499-7.5v-30c0-4.136 3.364-7.5 7.499-7.5 4.137 0 7.502 3.364 7.502 7.5v7.5h37.537l.643-6.794c1.2-12.698 4.026-25.206 8.4-37.175l-14.09-5.147c-4.03 11.032-6.867 22.479-8.459 34.117h-10.316c-3.096-8.73-11.438-15-21.217-15-12.406-.002-22.499 10.091-22.499 22.498v30c0 12.407 10.093 22.5 22.499 22.5 9.779 0 18.121-6.27 21.217-15h10.315c3.921 28.756 15.236 55.14 31.965 77.183l-12.594 12.594c-8.365-3.985-18.695-2.52-25.609 4.396-4.237 4.237-6.57 9.887-6.57 15.909s2.334 11.673 6.571 15.91l21.214 21.214c4.387 4.387 10.147 6.58 15.91 6.58 5.761 0 11.523-2.193 15.909-6.579 6.914-6.915 8.38-17.246 4.396-25.609l12.594-12.593c22.043 16.729 48.426 28.044 77.183 31.965v10.316c-8.73 3.095-15 11.437-15 21.215 0 12.407 10.094 22.5 22.5 22.5h30c12.406 0 22.5-10.093 22.5-22.5 0-9.778-6.27-18.12-15-21.215v-10.317c12.515-1.713 24.791-4.859 36.58-9.384zm-191.662-10.897 5.303 5.303c1.405 1.405 2.179 3.288 2.179 5.303 0 2.016-.774 3.899-2.18 5.305-1.403 1.404-3.287 2.177-5.302 2.177-2.016 0-3.898-.773-5.303-2.178l-21.215-21.214c-1.404-1.404-2.178-3.288-2.178-5.303s.773-3.898 2.178-5.302c2.922-2.924 7.681-2.926 10.608 0l5.304 5.303 21.327-21.328c3.374 3.694 6.913 7.233 10.607 10.607z"/><path d="m422.345 176.296 33.451-33.451-22.845-22.845 22.845-22.845-33.451-33.451-22.845 22.845-22.845-22.845-33.451 33.451 22.845 22.845-22.845 22.845 33.451 33.451 22.845-22.845zm-57.928-33.451 22.845-22.845-22.845-22.845 12.238-12.238 22.845 22.845 22.845-22.845 12.238 12.238-22.845 22.845 22.845 22.845-12.238 12.238-22.845-22.845-22.845 22.845z"/><path d="m512 120c0-62.033-50.468-112.5-112.5-112.5s-112.5 50.467-112.5 112.5c0 6.051.488 12.067 1.445 17.992-15.3-7.32-31.517-12.165-48.446-14.461v-10.314c8.73-3.095 15-11.437 15-21.215 0-12.406-10.094-22.5-22.5-22.5h-30c-12.406 0-22.5 10.093-22.5 22.5 0 9.778 6.27 18.12 15 21.215v10.318c-26.142 3.579-51.168 13.445-72.76 28.738-1.489 1.055-2.958 2.136-4.41 3.238l-12.606-12.606c1.424-2.987 2.176-6.284 2.176-9.7 0-6.022-2.335-11.672-6.572-15.91-4.238-4.238-9.888-6.572-15.91-6.572-6.021 0-11.672 2.333-15.91 6.572l-21.212 21.213c-4.238 4.238-6.573 9.888-6.573 15.91s2.335 11.672 6.572 15.91c4.238 4.238 9.889 6.572 15.911 6.572 3.416 0 6.712-.751 9.699-2.175l12.622 12.622c-6.749 8.889-12.618 18.447-17.449 28.548l13.531 6.472c22.631-47.316 69.032-79.765 121.097-84.685l6.794-.642v-37.538h-7.5c-4.136 0-7.5-3.364-7.5-7.5 0-4.135 3.364-7.5 7.5-7.5h30c4.136 0 7.5 3.364 7.5 7.5s-3.364 7.5-7.5 7.5h-7.5v37.539l6.794.642c21.99 2.078 42.732 8.812 61.705 19.999 2.177 6.13 4.874 12.08 8.1 17.765v42.456h42.456c2.88 1.634 5.832 3.125 8.835 4.492 7.582 15.849 12.269 32.76 13.928 50.312l.643 6.794h37.537v-7.5c0-4.136 3.365-7.5 7.502-7.5 4.135 0 7.499 3.364 7.499 7.5v30c0 4.136-3.364 7.5-7.499 7.5-4.137 0-7.502-3.365-7.502-7.5v-7.5h-37.537l-.643 6.794c-2.416 25.568-11.459 50.23-26.15 71.321-14.397 20.669-33.896 37.516-56.389 48.72l6.688 13.427c9.23-4.598 18-10.061 26.193-16.282l12.615 12.615c-1.424 2.987-2.176 6.284-2.176 9.7 0 6.022 2.333 11.672 6.572 15.911 4.237 4.238 9.888 6.571 15.909 6.571 6.022 0 11.672-2.334 15.91-6.572l21.213-21.213c4.238-4.238 6.573-9.888 6.573-15.91 0-6.021-2.335-11.672-6.573-15.91-4.237-4.238-9.888-6.571-15.91-6.571-3.416 0-6.712.751-9.699 2.175l-12.618-12.619c1.365-1.797 2.708-3.613 4-5.467 14.86-21.334 24.469-45.991 27.989-71.689h10.317c3.096 8.731 11.438 15 21.217 15 12.406 0 22.499-10.093 22.499-22.5v-30c0-12.407-10.093-22.5-22.499-22.5-9.779 0-18.121 6.27-21.217 15h-10.314c-1.655-12.149-4.646-23.991-8.932-35.41 8.936 2.245 18.158 3.409 27.465 3.409 62.032-.001 112.5-50.469 112.5-112.501zm-416.334 55.774-21.355-21.356-5.304 5.304c-1.404 1.405-3.288 2.178-5.303 2.178s-3.898-.773-5.304-2.179c-1.404-1.405-2.178-3.288-2.178-5.303s.773-3.898 2.179-5.303l21.212-21.213c1.405-1.405 3.289-2.179 5.304-2.179 2.016 0 3.898.773 5.304 2.179 1.404 1.405 2.178 3.288 2.178 5.303s-.773 3.898-2.178 5.303l-5.304 5.304 21.348 21.348c-3.696 3.378-7.228 6.923-10.599 10.614zm265.022 243.809 5.304-5.304c1.404-1.405 3.288-2.178 5.303-2.178s3.898.773 5.303 2.178 2.179 3.289 2.179 5.303c0 2.015-.773 3.898-2.179 5.303l-21.215 21.215c-1.404 1.405-3.287 2.178-5.303 2.178-2.015 0-3.898-.773-5.303-2.178s-2.179-3.288-2.179-5.303.774-3.898 2.179-5.303l5.304-5.304-21.355-21.355c3.692-3.371 7.229-6.913 10.606-10.607zm-12.565-216.68h-31.525v-31.527l-1.047-1.768c-8.865-14.964-13.551-32.119-13.551-49.608 0-53.762 43.738-97.5 97.5-97.5s97.5 43.738 97.5 97.5c0 53.761-43.738 97.5-97.5 97.5-17.486 0-34.641-4.686-49.609-13.55z"/><path d="m150 189.502c-20.678 0-37.5 16.822-37.5 37.5 0 20.677 16.822 37.5 37.5 37.5s37.5-16.822 37.5-37.5-16.822-37.5-37.5-37.5zm0 59.999c-12.406 0-22.5-10.093-22.5-22.5s10.094-22.5 22.5-22.5 22.5 10.094 22.5 22.5-10.094 22.5-22.5 22.5z"/><path d="m292.498 354.5c20.678 0 37.5-16.822 37.5-37.5s-16.822-37.5-37.5-37.5-37.5 16.822-37.5 37.5 16.822 37.5 37.5 37.5zm0-60c12.406 0 22.5 10.094 22.5 22.5 0 12.407-10.094 22.5-22.5 22.5s-22.5-10.093-22.5-22.5c0-12.406 10.094-22.5 22.5-22.5z"/><path d="m127.499 339.5c0 28.949 23.552 52.5 52.5 52.5s52.5-23.551 52.5-52.5-23.552-52.5-52.5-52.5-52.5 23.552-52.5 52.5zm90 0c0 20.678-16.822 37.5-37.5 37.5s-37.5-16.822-37.5-37.5 16.822-37.5 37.5-37.5 37.5 16.823 37.5 37.5z"/><path d="m239.999 204.501c-16.542 0-30 13.458-30 30s13.458 30 30 30 30-13.458 30-30-13.458-30-30-30zm0 45c-8.271 0-15-6.729-15-15s6.729-15 15-15 15 6.729 15 15-6.728 15-15 15z"/></g></g></g></svg>