<svg enable-background="new 0 0 256 256" height="512" viewBox="0 0 256 256" width="512" xmlns="http://www.w3.org/2000/svg"><g id="Layer_1"><g><path d="m250.255 16.153v223.703c0 3.31-2.64 6.22-6.23 6.22h-232.07c-3.57 0-6.21-2.91-6.21-6.23v-223.693c0-3.38 2.71-6.23 6.21-6.23h232.07c3.45 0 6.23 2.78 6.23 6.23z" fill="#eee"/><path d="m37.353 217.281c-6.617 0-12-5.383-12-12v-134.932c0-6.617 5.383-12 12-12h44.343c4.288 0 8.277 2.311 10.41 6.031l8.949 15.603h118.593c6.617 0 12 5.383 12 12v113.298c0 6.617-5.383 12-12 12z" fill="#aeaeae"/><path d="m250.255 16.153v22.989h-107.047c-3.673 0-7.051-2.014-8.798-5.246l-12.955-23.973h122.57c3.441 0 6.23 2.79 6.23 6.23z" fill="#fc5d3d"/><path d="m219.647 210.281h-182.294c-2.761 0-5-2.239-5-5v-134.932c0-2.761 2.239-5 5-5h44.343c1.791 0 3.446.958 4.337 2.512l9.526 16.609c.891 1.554 2.546 2.512 4.337 2.512h119.751c2.761 0 5 2.239 5 5v113.298c0 2.762-2.239 5.001-5 5.001z" fill="#efbf27"/><path d="m144 167.405v-29.356c0-4.94-3.002-9.191-7.277-11.029 4.041-2.676 6.715-7.259 6.715-12.458 0-8.236-6.701-14.938-14.937-14.938s-14.938 6.701-14.938 14.938c0 4.728 2.214 8.941 5.653 11.68-5.624.992-9.914 5.902-9.914 11.806v2.396c0 5.327 3.489 9.854 8.302 11.417v15.543c-4.813 1.563-8.302 6.09-8.302 11.417v2.396c0 6.617 5.383 12 12 12h19c6.617 0 12-5.383 12-12v-2.396c0-5.325-3.49-9.853-8.302-11.416z" fill="#e8a61e"/><path d="m137 173.822v-35.773c0-2.761-2.239-5-5-5h-10.698c-2.761 0-5 2.239-5 5v2.396c0 2.761 2.239 5 5 5h3.302v28.377h-3.302c-2.761 0-5 2.239-5 5v2.396c0 2.761 2.239 5 5 5h19c2.761 0 5-2.239 5-5v-2.396c0-2.761-2.239-5-5-5z" fill="#eee"/><circle cx="128.5" cy="114.563" fill="#eee" r="7.938"/><path d="m240.255 238.577h-211.51c-1.381 0-2.5-1.119-2.5-2.5s1.119-2.5 2.5-2.5h209.01v-181.498c0-1.381 1.119-2.5 2.5-2.5s2.5 1.119 2.5 2.5v183.998c0 1.381-1.119 2.5-2.5 2.5zm-221.51 0h-3c-1.381 0-2.5-1.119-2.5-2.5s1.119-2.5 2.5-2.5h3c1.381 0 2.5 1.119 2.5 2.5s-1.119 2.5-2.5 2.5z" fill="#fff"/><path d="m214.647 202.781h-159.294c-1.381 0-2.5-1.119-2.5-2.5s1.119-2.5 2.5-2.5h156.794v-100.798c0-1.381 1.119-2.5 2.5-2.5s2.5 1.119 2.5 2.5v103.298c0 1.381-1.119 2.5-2.5 2.5zm-169.294 0h-3c-1.381 0-2.5-1.119-2.5-2.5s1.119-2.5 2.5-2.5h3c1.381 0 2.5 1.119 2.5 2.5s-1.119 2.5-2.5 2.5z" fill="#f8e5b0"/><path d="m107.22 26.09c0-1.38-1.12-2.5-2.5-2.5h-82.89c-1.38 0-2.5 1.12-2.5 2.5s1.12 2.5 2.5 2.5h82.89c1.38 0 2.5-1.12 2.5-2.5z"/><path d="m234.88 27.03c1.38 0 2.5-1.12 2.5-2.5 0-1.37-1.12-2.5-2.5-2.5h-7.18c-1.381 0-2.5 1.13-2.5 2.5 0 1.38 1.119 2.5 2.5 2.5z"/><path d="m206.17 27.03c1.38 0 2.5-1.12 2.5-2.5s-1.12-2.5-2.5-2.5h-7.18c-1.381 0-2.5 1.12-2.5 2.5s1.119 2.5 2.5 2.5z"/><path d="m177.46 27.03c1.38 0 2.5-1.12 2.5-2.5s-1.12-2.5-2.5-2.5h-7.18c-1.381 0-2.5 1.12-2.5 2.5s1.119 2.5 2.5 2.5z"/><circle cx="159.14" cy="9.92" r="2.5"/><path d="m244.02 7.42h-74.88c-1.38 0-2.5 1.12-2.5 2.5s1.12 2.5 2.5 2.5h.021 74.859c2.09.01 3.73 1.65 3.74 3.73v20.49h-104.55c-2.76 0-5.29-1.51-6.601-3.93l-10.965-20.29h23.496c1.38 0 2.5-1.12 2.5-2.5s-1.12-2.5-2.5-2.5h-137.19c-4.79.01-8.7 3.93-8.7 8.73v223.7c0 4.696 3.754 8.709 8.7 8.73h32.57c1.37 0 2.5-1.12 2.5-2.5s-1.13-2.5-2.5-2.5h-32.57c-2.06-.01-3.69-1.64-3.71-3.73v-223.7c.01-2.05 1.68-3.72 3.71-3.73h108.018l12.243 22.67c2.189 4.04 6.399 6.55 11 6.55h104.55v198.22c-.02 2.08-1.66 3.71-3.74 3.72h-179.501c-1.38 0-2.5 1.12-2.5 2.5s1.12 2.5 2.5 2.5h179.5c4.958-.021 8.73-4.009 8.73-8.72v-223.71c-.01-4.8-3.92-8.72-8.73-8.73z"/><circle cx="54.52" cy="246.08" r="2.5"/><path d="m37.35 212.78h182.3c4.131 0 7.5-3.37 7.5-7.5v-113.3c0-4.13-3.369-7.49-7.5-7.5h-119.75c-.9 0-1.73-.48-2.17-1.25l-9.53-16.61c-1.33-2.33-3.82-3.77-6.5-3.77h-16.29c-1.38 0-2.5 1.12-2.5 2.5s1.12 2.5 2.5 2.5h16.29c.89 0 1.72.48 2.17 1.26l9.52 16.6c1.33 2.33 3.83 3.77 6.51 3.77h119.75c1.37 0 2.49 1.13 2.5 2.5v113.3c-.01 1.38-1.13 2.5-2.5 2.5h-182.3c-1.37 0-2.49-1.12-2.5-2.5v-134.93c.01-1.38 1.13-2.5 2.5-2.5h8.06c1.38 0 2.5-1.12 2.5-2.5s-1.12-2.5-2.5-2.5h-8.06c-4.13 0-7.5 3.36-7.5 7.5v134.93c0 4.14 3.37 7.5 7.5 7.5z"/><circle cx="55.41" cy="65.35" r="2.5"/><path d="m113.802 178.822v2.396c0 4.136 3.364 7.5 7.5 7.5h19c4.136 0 7.5-3.364 7.5-7.5v-2.396c0-3.739-2.699-7.5-8.302-7.5v-33.273c0-4.136-3.364-7.5-7.5-7.5h-10.698c-4.136 0-7.5 3.364-7.5 7.5v2.396c0 3.739 2.699 7.5 8.302 7.5v23.377c-5.504 0-8.302 3.671-8.302 7.5zm10.802-35.877h-3.302c-1.378 0-2.5-1.122-2.5-2.5v-2.396c0-1.378 1.122-2.5 2.5-2.5h10.698c1.379 0 2.5 1.122 2.5 2.5v35.773c0 1.381 1.119 2.5 2.5 2.5h3.302c1.379 0 2.5 1.122 2.5 2.5v2.396c0 1.378-1.121 2.5-2.5 2.5h-19c-1.378 0-2.5-1.122-2.5-2.5v-2.396c0-1.378 1.122-2.5 2.5-2.5h3.302c1.381 0 2.5-1.119 2.5-2.5v-28.377c0-1.381-1.12-2.5-2.5-2.5z"/><path d="m138.937 114.563c0-5.755-4.683-10.438-10.437-10.438-5.755 0-10.438 4.682-10.438 10.438s4.683 10.437 10.438 10.437 10.437-4.682 10.437-10.437zm-15.875 0c0-2.998 2.439-5.438 5.438-5.438s5.437 2.439 5.437 5.438-2.439 5.437-5.437 5.437-5.438-2.439-5.438-5.437z"/></g></g></svg>