<svg id="Capa_1" enable-background="new 0 0 512 512" height="512" viewBox="0 0 512 512" width="512" xmlns="http://www.w3.org/2000/svg"><g><g><g clip-rule="evenodd" fill-rule="evenodd"><path d="m240.278 82.5v-60c0-8.25-6.75-15-15-15h-150c-8.25 0-15 6.75-15 15v60c0 8.25 6.75 15 15 15h150c8.25 0 15-6.75 15-15z" fill="#f8fafc"/><path d="m90.278 97.5h120v89.999h-120z" fill="#a4d7f5"/><path d="m210.278 187.5h-120v257c0 33 27 60 60 60s60-27 60-60zm-30 37.499v150h-60.001v-150z" fill="#d15573"/><path d="m256.722 166.001c0 18.12 4.946 35.081 13.554 49.614v34.331h34.332c14.535 8.608 31.494 13.554 49.614 13.554 53.855 0 97.5-43.645 97.5-97.5s-43.645-97.5-97.5-97.5-97.5 43.647-97.5 97.501zm86.894 42.426-42.426-42.426 21.213-21.213 21.213 21.213 42.426-42.426 21.213 21.213z" fill="#a4d7f5"/><path d="m301.19 166.001 42.426 42.426 63.639-63.639-21.213-21.213-42.426 42.426-21.213-21.213z" fill="#9ce3bf"/><path d="m97.777 7.5h-22.5c-8.25 0-15 6.75-15 15v60c0 8.25 6.75 15 15 15h22.5c-8.25 0-15-6.75-15-15v-60c.001-8.25 6.75-15 15-15z" fill="#d6e1ef"/><path d="m90.278 97.5h22.5v89.999h-22.5z" fill="#6e91ef"/><path d="m112.778 187.5h-22.5v257c0 33 27 60 60 60 3.843 0 7.603-.371 11.25-1.07-27.671-5.304-48.75-29.773-48.75-58.93z" fill="#c21d44"/><path d="m120.277 224.999h60.001v150h-60.001z" fill="#9ce3bf"/></g><g><path d="m217.778 75h-15v-15h15zm0-30h-15v-15h15z" fill="#fff"/></g><path clip-rule="evenodd" d="m256.722 166.001c0 18.12 4.946 35.081 13.554 49.614v34.331h22.5v-34.331c-8.609-14.533-13.554-31.495-13.554-49.614 0-50.049 37.697-91.273 86.25-96.85-57.806-6.64-108.75 38.375-108.75 96.85z" fill="#6e91ef" fill-rule="evenodd"/><path clip-rule="evenodd" d="m120.277 352.499h60.001v22.5h-60.001z" fill="#52cd8d" fill-rule="evenodd"/></g><g><path d="m225.278 0h-150c-12.407 0-22.5 10.093-22.5 22.5v22.5h15v-22.5c0-4.135 3.365-7.5 7.5-7.5h150c4.135 0 7.5 3.364 7.5 7.5v60c0 4.135-3.365 7.5-7.5 7.5h-150c-4.135 0-7.5-3.364-7.5-7.5v-22.499h-15v22.499c0 12.406 10.093 22.5 22.5 22.5h7.5v339.5c0 37.22 30.28 67.5 67.5 67.5s67.5-30.28 67.5-67.5v-22.5h-15v22.5c0 28.949-23.551 52.5-52.5 52.5s-52.5-23.551-52.5-52.5v-249.5h105v182h15v-272h7.5c12.407 0 22.5-10.093 22.5-22.5v-60c0-12.407-10.093-22.5-22.5-22.5zm-22.5 180h-105v-75h105z"/><path d="m202.778 392h15v15h-15z"/><path d="m187.778 382.499v-165h-75.001v165zm-60.001-150h45.001v135h-45.001z"/><path d="m386.042 112.969-42.426 42.426-21.213-21.213-31.819 31.819 53.032 53.033 74.246-74.246zm-74.246 53.032 10.606-10.606 21.213 21.213 42.426-42.426 10.607 10.606-53.033 53.033z"/><path d="m354.222 61.001c-57.897 0-105 47.103-105 105 0 18.133 4.68 35.936 13.554 51.627v39.818h39.819c15.695 8.874 33.498 13.554 51.626 13.554 57.897 0 105-47.103 105-105s-47.101-104.999-104.999-104.999zm0 195c-16.141 0-31.975-4.325-45.792-12.507l-1.768-1.047h-28.886v-28.886l-1.047-1.768c-8.182-13.813-12.507-29.647-12.507-45.792 0-49.626 40.374-90 90-90s90 40.374 90 90-40.374 90-90 90z"/></g></g></svg>