<svg height="512" viewBox="0 0 64 64" width="512" xmlns="http://www.w3.org/2000/svg"><g id="Fill_1" fill="#a4917d" data-name="Fill 1"><path d="m22 54h24a6 6 0 0 1 6 6 0 0 0 0 1 0 0h-36a0 0 0 0 1 0 0 6 6 0 0 1 6-6z"/><path d="m43 54h-18a6.0048 6.0048 0 0 0 6-6v-.25a18.4939 18.4939 0 0 0 3 .25 17.5213 17.5213 0 0 0 3-.26v.26a6.0048 6.0048 0 0 0 6 6z"/><path d="m42.74 14.26-4.51 4.51a12.0014 12.0014 0 1 1 -14.63 17.23h-6.57a18 18 0 1 0 25.71-21.74z"/><path d="m24.757 16.343h8.485v11.314h-8.485z" transform="matrix(.707 -.707 .707 .707 -7.062 26.95)"/><path d="m30.136 10.257h12.728v8.485h-12.728z" transform="matrix(.707 -.707 .707 .707 .438 30.056)"/><path d="m43 12 3.1716-3.1716a2.8286 2.8286 0 0 0 0-4 2.8286 2.8286 0 0 0 -4 0l-3.1716 3.1716z"/></g><g id="Line"><path d="m46 53h-3a4.99 4.99 0 0 1 -4.944-4.4464 18.9829 18.9829 0 0 0 6.284-34.4792l.3673-.3674a.9994.9994 0 0 0 0-1.414l-.2932-.293 2.4643-2.4644a3.8275 3.8275 0 0 0 0-5.414 3.92 3.92 0 0 0 -5.414 0l-2.4644 2.4643-.293-.2929a.9994.9994 0 0 0 -1.414 0l-5 5a1 1 0 1 0 1.414 1.414l4.293-4.2929 4.5859 4.5859-7.5859 7.5859-6.293-6.2929a.9994.9994 0 0 0 -1.414 0l-6 6a.9994.9994 0 0 0 0 1.414l1.7929 1.793-1.7929 1.793a1 1 0 1 0 1.414 1.414l1.793-1.7929 1.5859 1.5859-1.7929 1.793a1 1 0 1 0 1.414 1.414l1.793-1.7929 1.793 1.7929a.9995.9995 0 0 0 1.414 0l6-6a.9994.9994 0 0 0 0-1.414l-.2929-.293 2.0528-2.0529a11.0176 11.0176 0 0 1 6.1869 12.8039 1 1 0 1 0 1.9365.498 13.0131 13.0131 0 0 0 -6.6264-14.799l2.9252-2.9251a16.9929 16.9929 0 1 1 -24.377 21.4751h4.539a12.9946 12.9946 0 0 0 20.6389 1.667 1 1 0 0 0 -1.49-1.334 10.9727 10.9727 0 0 1 -16.66-.333h3.46a1 1 0 0 0 0-2h-17a1 1 0 0 0 0 2h4.352a19.0471 19.0471 0 0 0 13.5924 11.55 4.99 4.99 0 0 1 -4.9444 4.45h-3a7.0081 7.0081 0 0 0 -7 7 1 1 0 0 0 1 1h24a1 1 0 0 0 0-2h-22.8994a5.0084 5.0084 0 0 1 4.8994-4h24a5.0084 5.0084 0 0 1 4.8994 4h-4.8994a1 1 0 0 0 0 2h6a1 1 0 0 0 1-1 7.0081 7.0081 0 0 0 -7-7zm-16-25.4141-6.5859-6.5859 4.5859-4.5859 6.5859 6.5859zm12.8784-22.05a1.8713 1.8713 0 0 1 2.586 0 1.8285 1.8285 0 0 1 0 2.586l-2.4644 2.464-2.5859-2.5859zm-12.9839 47.4641a6.9846 6.9846 0 0 0 2.0455-4.1262 18.8591 18.8591 0 0 0 2.06.1262 19.1027 19.1027 0 0 0 2.0618-.1169 6.9852 6.9852 0 0 0 2.0437 4.1169z"/></g></svg>