<svg enable-background="new 0 0 256 256" height="512" viewBox="0 0 256 256" width="512" xmlns="http://www.w3.org/2000/svg"><g id="Layer_1"><g><path d="m171.373 157.185-14.2 14.19-15.05-15.05c5.27-4.15 10.04-8.92 14.19-14.2z" fill="#efefef"/><g fill="#aeaeae"><path d="m171.373 157.185-14.2 14.19-5-5c2.87-2.97 7.34-7.24 14.25-14.14z"/><path d="m161.303 147.115c-4.19 5.24-8.95 10.01-14.2 14.19l-4.98-4.98c5.27-4.15 10.04-8.92 14.19-14.2z"/><path d="m174.253 90.225c0 19.6-6.71 37.62-17.94 51.9-4.15 5.28-8.92 10.05-14.19 14.2-14.3 11.23-32.33 17.93-51.9 17.93-46.4 0-84.02-37.62-84.02-84.03 0-46.4 37.62-84.02 84.02-84.02 46.41 0 84.03 37.62 84.03 84.02z"/></g><path d="m121.103 47.185c0 14.76-10.37 27.1-24.23 30.14l-6.64 9.96-6.65-9.96c-13.86-3.04-24.23-15.38-24.23-30.14 0-6.44 1.97-12.41 5.33-17.36 5.56-8.16 14.93-13.52 25.55-13.52s19.98 5.36 25.54 13.52c3.37 4.95 5.33 10.92 5.33 17.36z" fill="#f0c020"/><path d="m82.512 60.048-8.823-8.823c-1.951-1.95-1.951-5.112 0-7.062 1.949-1.95 5.112-1.95 7.061 0l5.293 5.292 13.663-13.663c1.949-1.95 5.112-1.95 7.061 0 1.951 1.95 1.951 5.112 0 7.062l-17.194 17.194c-1.949 1.95-5.112 1.95-7.061 0z" fill="#efefef"/><path d="m155.793 90.235c0 28.84-18.62 53.33-44.5 62.1-6.61 2.24-13.7 3.46-21.06 3.46-7.37 0-14.45-1.22-21.07-3.46-25.88-8.77-44.5-33.26-44.5-62.1 0-27.15 16.5-50.44 40.02-60.41-3.36 4.95-5.33 10.92-5.33 17.36 0 14.76 10.37 27.1 24.23 30.14l6.65 9.96 6.64-9.96c13.86-3.04 24.23-15.38 24.23-30.14 0-6.44-1.96-12.41-5.33-17.36 23.52 9.96 40.02 33.26 40.02 60.41z" fill="#72c2e9"/><circle cx="90.228" cy="109.121" fill="#ffb69f" r="13.079"/><path d="m135.909 92.807c-3.961-1.309-8.051-2.453-10.348-12.345-2.115 9.112-5.504 10.745-10.348 12.345 7.9 2.61 9.092 6.933 10.348 12.345 2.165-9.33 5.746-10.824 10.348-12.345z" fill="#f0c020"/><path d="m65.243 92.807c-3.961-1.309-8.051-2.453-10.348-12.345-2.115 9.112-5.504 10.745-10.348 12.345 7.9 2.61 9.092 6.933 10.348 12.345 2.165-9.33 5.745-10.824 10.348-12.345z" fill="#f0c020"/><path d="m111.293 143.255v9.08c-6.61 2.24-13.7 3.46-21.06 3.46-7.37 0-14.45-1.22-21.07-3.46v-9.08c0-11.63 9.43-21.06 21.07-21.06 11.68 0 21.06 9.49 21.06 21.06z" fill="#fc5d3d"/><path d="m245.063 245.065c-6.3 6.31-16.53 6.31-22.84 0l-67.25-67.25c-1.17-1.17-1.17-3.07 0-4.24l2.2-2.2 14.2-14.19 2.2-2.21c1.17-1.17 3.07-1.17 4.24 0l67.25 67.25c6.31 6.31 6.31 16.54 0 22.84z" fill="#aeaeae"/><path d="m68.291 143.991c-2.933-1.193-5.786-2.638-8.48-4.295-1.176-.723-1.543-2.263-.82-3.439.722-1.176 2.261-1.544 3.439-.82 2.46 1.513 5.066 2.833 7.745 3.922 1.279.521 1.894 1.979 1.374 3.258-.522 1.283-1.983 1.892-3.258 1.374zm-16.841-10.542c-.772-.694-1.538-1.419-2.274-2.156-.977-.976-.977-2.559 0-3.535.976-.977 2.56-.977 3.535 0 .674.674 1.374 1.337 2.081 1.972 1.027.923 1.112 2.503.189 3.531-.922 1.025-2.503 1.112-3.531.188z" fill="#c5e5fe"/><path d="m108.908 142.618c-.521-1.279.094-2.738 1.373-3.258 19.19-7.809 32.986-26.655 32.986-49.128 0-9.857-2.708-19.47-7.83-27.8-.724-1.176-.356-2.716.82-3.439 1.177-.725 2.716-.355 3.439.82 5.607 9.118 8.571 19.637 8.571 30.419 0 24.586-15.097 45.212-36.102 53.759-1.267.517-2.734-.085-3.257-1.373zm20.819-87.825c-.635-.707-1.298-1.407-1.972-2.081-.977-.976-.977-2.559 0-3.535.976-.977 2.56-.977 3.535 0 .737.736 1.462 1.501 2.156 2.274.923 1.027.838 2.608-.189 3.531-1.028.925-2.608.836-3.53-.189z" fill="#c5e5fe"/><path d="m68.291 143.991c-1.279-.521-1.894-1.979-1.374-3.258s1.977-1.896 3.258-1.374c12.743 5.186 27.361 5.186 40.105 0 1.28-.522 2.738.095 3.258 1.374s-.095 2.738-1.374 3.258c-13.94 5.672-29.931 5.672-43.873 0z" fill="#ffcbc3"/><path d="m236.228 239.754c-.976-.978-.974-2.561.003-3.536 1.424-1.421 1.422-3.726-.007-5.155l-53.102-53.103c-.977-.976-.977-2.559 0-3.535.976-.977 2.56-.977 3.535 0l53.102 53.103c3.412 3.412 3.357 8.882.004 12.229-.972.971-2.556.978-3.535-.003zm-60.177-68.864-2.121-2.121c-.977-.976-.977-2.559 0-3.535.976-.977 2.56-.977 3.535 0l2.121 2.121c.977.976.977 2.559 0 3.535-.975.977-2.559.977-3.535 0z" fill="#eee"/><path d="m122.971 105.753c.637 2.743 4.545 2.742 5.182 0 1.905-8.212 4.709-9.139 8.591-10.421 2.424-.801 2.43-4.249 0-5.051-3.729-1.228-6.641-2.022-8.591-10.421-.635-2.737-4.548-2.73-5.181 0-1.907 8.213-4.566 9.092-8.591 10.422-2.424.801-2.43 4.248 0 5.051 6.685 2.208 7.443 5.475 8.59 10.42zm2.6-17.523c1.2 2.161 2.566 3.591 3.977 4.601-1.472 1.035-2.794 2.423-3.934 4.439-.942-1.588-2.25-3.089-4.164-4.403 1.549-1.062 2.935-2.503 4.121-4.637z"/><path d="m52.304 105.753c.637 2.743 4.545 2.742 5.182 0 1.905-8.212 4.709-9.139 8.591-10.421 2.424-.801 2.43-4.249 0-5.051-3.729-1.228-6.641-2.022-8.591-10.421-.635-2.737-4.548-2.73-5.181 0-1.907 8.213-4.566 9.092-8.591 10.422-2.424.801-2.43 4.248 0 5.051 6.685 2.208 7.443 5.475 8.59 10.42zm2.601-17.523c1.2 2.161 2.566 3.591 3.977 4.601-1.472 1.035-2.794 2.423-3.934 4.439-.942-1.588-2.25-3.089-4.164-4.403 1.548-1.062 2.934-2.503 4.121-4.637z"/><path d="m36.613 128.075c-1.106.834-1.287 2.431-.46 3.5 12.613 16.477 31.492 25.863 51.28 26.663 38.673 1.571 70.859-29.305 70.859-68.004 0-27.739-16.621-51.84-40.885-62.418-6.268-8.783-16.372-14.011-27.175-14.011-10.815 0-20.921 5.231-27.189 14.017-24.37 10.622-40.881 34.801-40.881 62.413 0 7.97 1.37 15.78 4.06 23.2.459 1.263 1.858 1.979 3.2 1.5 1.35-.493 1.954-1.977 1.5-3.2-2.5-6.88-3.76-14.12-3.76-21.5 0-22.875 12.278-43.658 31.826-54.801-1.4 3.729-2.136 7.695-2.136 11.751 0 15.908 11.019 28.784 25.2 32.35l6.1 9.14c1.008 1.481 3.154 1.477 4.16 0l6.09-9.14c14.22-3.595 25.2-16.459 25.2-32.35 0-4.061-.735-8.026-2.134-11.753 19.547 11.137 31.824 31.92 31.824 54.802 0 25.868-15.736 48.937-39.5 58.496v-5.475c0-9.698-5.892-18.044-14.283-21.653 3.811-2.843 6.294-7.372 6.294-12.481 0-8.59-6.989-15.579-15.58-15.579-8.59 0-15.579 6.989-15.579 15.579 0 5.111 2.485 9.642 6.299 12.484-8.391 3.611-14.281 11.954-14.281 21.65v5.477c-10.473-4.213-19.601-11.137-26.541-20.197-.808-1.06-2.438-1.28-3.508-.46zm59.72-53.19c-.63.14-1.18.51-1.54 1.05l-4.56 6.85-4.57-6.85c-.36-.54-.91-.91-1.54-1.05-12.91-2.83-22.28-14.48-22.27-27.7 0-15.821 12.835-28.38 28.38-28.38 15.489 0 28.37 12.54 28.37 28.38.01 13.22-9.36 24.87-22.27 27.7zm-16.687 34.236c0-5.833 4.746-10.579 10.579-10.579s10.58 4.746 10.58 10.579c0 5.809-4.707 10.536-10.506 10.576-.022 0-.044-.002-.065-.002-.025 0-.05.002-.076.002-5.802-.037-10.512-4.765-10.512-10.576zm-7.982 34.134c0-10.215 8.3-18.526 18.513-18.557.017 0 .033.002.049.002.019 0 .038-.003.057-.003 10.211.027 18.511 8.34 18.511 18.558v7.248c-12.487 3.831-25.465 3.584-37.13 0z"/><path d="m25.683 36.375c-1.06-.83-2.69-.63-3.51.42-.01 0-.01.01-.01.01-.861 1.091-.637 2.674.43 3.5 1.034.823 2.634.692 3.51-.42.83-1.073.683-2.64-.42-3.51z"/><path d="m31.483 119.495c-1.224.675-1.639 2.182-1 3.38l.01.01c.666 1.21 2.189 1.657 3.39.99 1.21-.66 1.66-2.18 1-3.39-.65-1.17-2.23-1.63-3.4-.99z"/><path d="m199.503 222.345c1.005-.984.972-2.578 0-3.53-.94-.94-2.59-.94-3.53 0-.943.943-1.005 2.525 0 3.53.958.978 2.555.996 3.53 0z"/><path d="m246.833 220.455-67.25-67.25c-2.006-1.987-5.326-2.454-8.215.435l-11.744-11.744c11.018-14.784 17.129-32.668 17.129-51.671 0-47.77-38.709-86.52-86.54-86.52-23.44 0-45.203 9.353-61.22 25.39-.931.93-1.021 2.51.01 3.54.94.94 2.59.94 3.53-.01 15.41-15.42 35.9-23.92 57.69-23.92 45.061 0 81.53 36.47 81.53 81.52 0 45.025-36.431 81.53-81.53 81.53-45.06 0-81.52-36.479-81.52-81.53 0-14.99 4.1-29.64 11.87-42.38.71-1.17.34-2.71-.84-3.43-1.15-.707-2.684-.386-3.43.83-8.24 13.52-12.6 29.07-12.6 44.98 0 47.774 38.715 86.53 86.52 86.53 18.415 0 36.455-5.788 51.666-17.124l11.744 11.744c-2.85 2.85-2.438 6.183-.43 8.21l35.7 35.69c.94.95 2.59.95 3.53 0 .98-.97.98-2.56 0-3.53l-35.69-35.7c-.201-.18-.201-.519 0-.7 18.663-18.652 15.667-15.65 18.6-18.61.209-.188.499-.192.7.01l67.25 67.25c5.413 5.413 5.262 14.059 0 19.3-5.315 5.336-13.982 5.339-19.3 0l-17.41-17.41c-.95-.94-2.6-.94-3.54 0-.97.98-.97 2.56 0 3.54l17.41 17.41c7.261 7.261 19.081 7.299 26.38 0 7.257-7.257 7.314-19.046 0-26.38zm-89.66-52.62-11.32-11.32c3.73-3.134 7.536-6.955 10.651-10.659l11.324 11.324z"/><path d="m97.938 34.025-11.895 11.894-3.524-3.523c-2.923-2.925-7.67-2.931-10.596-.001-2.929 2.927-2.931 7.669 0 10.597l8.822 8.823h.001c2.922 2.925 7.669 2.929 10.596 0l17.193-17.193c2.929-2.927 2.931-7.668.001-10.597-2.952-2.953-7.697-2.903-10.598 0zm7.061 7.061-17.194 17.195c-.975.975-2.553.972-3.523 0 0 0 0 0-.001 0l-8.824-8.824c-.973-.973-.976-2.55.001-3.526.96-.961 2.539-.985 3.525.001l5.292 5.292c.977.976 2.56.976 3.535 0l13.664-13.663c.958-.957 2.535-.989 3.526.001.975.974.975 2.549-.001 3.524z"/></g></g></svg>