<svg enable-background="new 0 0 256 256" height="512" viewBox="0 0 256 256" width="512" xmlns="http://www.w3.org/2000/svg"><g id="Layer_1"><g><path d="m188.567 33.504v128.84h-25.47c-5.523 0-10 4.477-10 10v44.55c0 2.92 1.28 5.7 3.5 7.6l5 4.27h-126.71c-2.761 0-5-2.239-5-5v-211.26c0-2.761 2.239-5 5-5h127.67z" fill="#efefef"/><path d="m97.06 178.951c-6.617 0-12-5.383-12-12v-16.453h-16.453c-6.617 0-12-5.383-12-12v-24.333c0-6.617 5.383-12 12-12h16.453v-16.454c0-6.617 5.383-12 12-12h24.334c6.617 0 12 5.383 12 12v16.454h16.453c6.617 0 12 5.383 12 12v24.333c0 6.617-5.383 12-12 12h-16.453v16.453c0 6.617-5.383 12-12 12z" fill="#aeaeae"/><path d="m225.958 131.011c-3.961-1.309-8.051-2.453-10.348-12.345-2.115 9.112-5.504 10.745-10.348 12.345 7.9 2.61 9.092 6.933 10.348 12.345 2.165-9.33 5.746-10.825 10.348-12.345z" fill="#f0c020"/><path d="m225.958 131.011c-3.961-1.309-8.051-2.453-10.348-12.345-2.115 9.112-5.504 10.745-10.348 12.345 7.9 2.61 9.092 6.933 10.348 12.345 2.165-9.33 5.746-10.825 10.348-12.345z" fill="#f0c020"/><path d="m188.567 155.344v7h-25.47c-5.52 0-10 4.48-10 10v44.55c0 2.92 1.28 5.7 3.5 7.6l5 4.27h-10.66c-3.09-3.17-4.84-7.41-4.84-11.87v-44.55c0-9.37 7.63-17 17-17z" fill="#aeaeae"/><path d="m188.562 33.512v7.142h-22.945c-5.635 0-10.202-4.568-10.202-10.202v-22.946h7.142v20.905c0 2.817 2.284 5.101 5.101 5.101z" fill="#aeaeae"/><path d="m222.047 172.344v44.72c0 2.82-1.19 5.51-3.28 7.41l-23.68 21.45c-3.73 3.37-9.39 3.45-13.21.18l-20.28-17.34-5-4.27c-2.22-1.9-3.5-4.68-3.5-7.6v-44.55c0-5.52 4.48-10 10-10h48.95c5.53 0 10 4.48 10 10z" fill="#71c1e8"/><path d="m165.098 211.365v-37.021h44.95v37.403c0 2.824-1.194 5.516-3.286 7.411l-18.419 16.685-19.743-16.877c-2.223-1.9-3.502-4.677-3.502-7.601z" fill="#efbf27"/><path d="m149.848 109.164h-23.453v-23.453c0-2.761-2.239-5-5-5h-24.334c-2.761 0-5 2.239-5 5v23.453h-23.454c-2.761 0-5 2.239-5 5v24.333c0 2.761 2.239 5 5 5h23.453v23.453c0 2.761 2.239 5 5 5h24.333c2.761 0 5-2.239 5-5v-23.453h23.453c2.761 0 5-2.239 5-5v-24.333c.002-2.761-2.237-5-4.998-5z" fill="#71c1e8"/><path d="m128.538 221.014h-3c-1.381 0-2.5-1.119-2.5-2.5s1.119-2.5 2.5-2.5h3c1.381 0 2.5 1.119 2.5 2.5s-1.119 2.5-2.5 2.5zm-13 0h-75.65c-1.381 0-2.5-1.119-2.5-2.5v-201.01c0-1.381 1.119-2.5 2.5-2.5s2.5 1.119 2.5 2.5v198.51h73.15c1.381 0 2.5 1.119 2.5 2.5s-1.119 2.5-2.5 2.5z" fill="#fff"/><path d="m226.792 128.485c-3.729-1.228-6.642-2.022-8.591-10.421-.635-2.737-4.548-2.729-5.181 0-1.907 8.213-4.566 9.092-8.591 10.422-2.424.801-2.429 4.248 0 5.051 6.686 2.209 7.444 5.476 8.591 10.421.637 2.743 4.545 2.742 5.182 0 1.905-8.212 4.709-9.139 8.591-10.421 2.423-.802 2.429-4.249-.001-5.052zm-11.129 6.989c-.942-1.587-2.25-3.089-4.164-4.403 1.548-1.062 2.934-2.504 4.121-4.638 1.2 2.161 2.566 3.592 3.977 4.601-1.471 1.036-2.793 2.424-3.934 4.44z"/><path d="m190.335 31.736-26.01-26c-.435-.435-1.098-.732-1.768-.732-.002 0-.003 0-.005 0h-127.664c-4.136 0-7.5 3.364-7.5 7.5v211.26c0 4.136 3.364 7.5 7.5 7.5h125.783l19.581 16.739c4.761 4.076 11.86 3.979 16.515-.226l23.683-21.454c2.604-2.368 4.099-5.743 4.099-9.259v-44.72c0-6.893-5.607-12.5-12.5-12.5h-20.98v-126.34c-.002-.663-.265-1.299-.734-1.768zm-25.278-18.198 17.483 17.476h-14.883c-1.43 0-2.6-1.17-2.6-2.6zm-130.169 212.726c-1.379 0-2.5-1.122-2.5-2.5v-211.26c0-1.378 1.121-2.5 2.5-2.5h125.17v18.41c0 4.19 3.41 7.6 7.6 7.6h18.41v123.83h-22.97c-6.893 0-12.5 5.607-12.5 12.5v44.55c0 3.676 1.678 7.12 4.226 9.37zm177.16-61.42c4.136 0 7.5 3.364 7.5 7.5v44.72c0 2.111-.897 4.137-2.459 5.557l-23.677 21.448c-2.794 2.522-7.053 2.581-9.909.134l-20.255-17.314c-.01-.008-.017-.018-.027-.027l-4.998-4.269c-1.669-1.428-2.626-3.506-2.626-5.701v-44.55c0-4.136 3.364-7.5 7.5-7.5h25.47 23.481z"/><path d="m162.598 174.344v37.021c0 3.66 1.596 7.124 4.378 9.501l19.743 16.877c.956.818 2.37.797 3.303-.047l18.419-16.685c2.61-2.365 4.107-5.741 4.107-9.264v-37.403c0-1.381-1.119-2.5-2.5-2.5h-44.95c-1.381 0-2.5 1.119-2.5 2.5zm5 2.5h39.95v34.903c0 2.114-.898 4.14-2.465 5.558l-16.788 15.208-18.071-15.447c-1.669-1.427-2.626-3.504-2.626-5.701z"/><path d="m157.348 138.498v-24.333c0-4.136-3.364-7.5-7.5-7.5h-20.953v-20.954c0-4.136-3.364-7.5-7.5-7.5h-24.335c-4.136 0-7.5 3.364-7.5 7.5v20.954h-20.953c-4.136 0-7.5 3.364-7.5 7.5v24.333c0 4.136 3.364 7.5 7.5 7.5h20.953v20.953c0 4.136 3.364 7.5 7.5 7.5h24.334c4.136 0 7.5-3.364 7.5-7.5v-20.953h20.953c4.136 0 7.501-3.364 7.501-7.5zm-5 0c0 1.378-1.121 2.5-2.5 2.5h-23.453c-1.381 0-2.5 1.119-2.5 2.5v23.453c0 1.378-1.121 2.5-2.5 2.5h-24.335c-1.379 0-2.5-1.122-2.5-2.5v-23.453c0-1.381-1.119-2.5-2.5-2.5h-23.453c-1.379 0-2.5-1.122-2.5-2.5v-24.333c0-1.378 1.121-2.5 2.5-2.5h23.453c1.381 0 2.5-1.119 2.5-2.5v-23.454c0-1.378 1.121-2.5 2.5-2.5h24.334c1.379 0 2.5 1.122 2.5 2.5v23.454c0 1.381 1.119 2.5 2.5 2.5h23.453c1.379 0 2.5 1.122 2.5 2.5v24.333z"/><path d="m182.877 209.133c.977.977 2.558.977 3.535 0l11.946-11.945c.977-.977.977-2.56 0-3.536-.977-.977-2.559-.976-3.535 0l-10.179 10.178-4.322-4.322c-.977-.977-2.559-.977-3.535 0-.977.976-.977 2.559 0 3.535z"/><path d="m83.762 36.012h50.932c1.381 0 2.5-1.119 2.5-2.5s-1.119-2.5-2.5-2.5h-50.932c-1.381 0-2.5 1.119-2.5 2.5s1.119 2.5 2.5 2.5z"/><path d="m69.977 49.514h78.5c1.381 0 2.5-1.119 2.5-2.5s-1.119-2.5-2.5-2.5h-78.5c-1.381 0-2.5 1.119-2.5 2.5s1.12 2.5 2.5 2.5z"/></g></g></svg>