<svg enable-background="new 0 0 256 256" height="512" viewBox="0 0 256 256" width="512" xmlns="http://www.w3.org/2000/svg"><g id="Layer_13"><g><g><g><path d="m94.695 184.345-9.872-9.872c-2.341-2.341-6.137-2.341-8.478 0l-40.035 40.034c-2.341 2.341-2.341 6.137 0 8.478l9.872 9.872c2.341 2.341 6.137 2.341 8.478 0l40.034-40.034c2.342-2.341 2.342-6.137.001-8.478z" fill="#fc657e"/></g></g><g><g><path d="m100.19 168.977c-1.588-1.588-3.055-3.25-4.424-4.964l-10.701 10.701 9.388 9.388 10.701-10.701c-1.714-1.369-3.376-2.836-4.964-4.424z" fill="#c7d7e5"/></g></g><g><g><path d="m110.417 177.144v44.928c0 17.357 14.071 31.428 31.428 31.428s31.428-14.071 31.428-31.428v-44.845c-19.16 12.047-43.723 12.02-62.856-.083z" fill="#f98fa6"/></g></g><g><g><path d="m175.127 10.658h-66.565c-4.457 0-8.07 3.613-8.07 8.07s3.613 8.07 8.07 8.07h66.565c4.457 0 8.07-3.613 8.07-8.07s-3.613-8.07-8.07-8.07z" fill="#cbeff7"/></g></g><g><g><path d="m110.417 26.798v50.572c19.134-12.103 43.697-12.13 62.856-.082v-50.49z" fill="#9be5f9"/></g></g><g><g><circle cx="137.972" cy="216.02" fill="#fc657e" r="7.316"/></g></g><g><g><path d="m110.417 51.939v25.431c19.134-12.103 43.697-12.13 62.856-.082v-25.349z" fill="#f98fa6"/></g></g><g><g><circle cx="141.91" cy="127.257" fill="#edf4fc" r="59.001"/></g></g><g><g><path d="m176.24 92.926c-18.971-18.972-49.685-18.976-68.66.001-18.93 18.93-18.93 49.731 0 68.66 18.972 18.973 49.685 18.977 68.66 0 18.931-18.929 18.93-49.73 0-68.661z" fill="#9be5f9"/></g></g><g><g><path d="m176.24 92.926c-18.971-18.972-49.685-18.976-68.66.001-.998.998-1.931 2.035-2.824 3.095v62.469c.893 1.06 1.826 2.098 2.824 3.095 18.972 18.973 49.685 18.977 68.66 0 .949-.949 1.837-1.936 2.691-2.941v-62.777c-.853-1.006-1.741-1.992-2.691-2.942z" fill="#f98fa6"/></g></g><g><g><circle cx="155.972" cy="105.918" fill="#fc657e" r="5.418"/></g></g><g><g><circle cx="138.111" cy="137.588" fill="#fc657e" r="10.679"/></g></g><g><g><path d="m220.846 178.1h-2.4v-2.3c0-1.8-1.4-3.2-3.2-3.2-1.7 0-3.2 1.4-3.2 3.1v2.4h-2.3c-1.8 0-3.2 1.4-3.2 3.2-.1 1.7 1.3 3.2 3.2 3.2h2.3v2.3c0 1.8 1.4 3.2 3.2 3.2 1.7 0 3.2-1.4 3.2-3.1v-2.4h2.3c1.8 0 3.2-1.4 3.2-3.2 0-1.7-1.4-3.2-3.1-3.2z" fill="#70d6f9"/></g></g><g><g><path d="m196.146 204.5c-1.878 0-3.4 1.522-3.4 3.4s1.522 3.4 3.4 3.4 3.4-1.522 3.4-3.4-1.522-3.4-3.4-3.4z" fill="#f5c84c"/></g></g><g><g><path d="m200.928 64.2c-3.1-.6-5.6-3-6.2-6.1 0-.1-.3-.1-.3 0-.6 3.1-3.1 5.5-6.2 6.1-.1 0-.1.2 0 .3 3.1.6 5.6 3 6.2 6.1 0 .1.3.1.3 0 .6-3.1 3.1-5.5 6.2-6.1.1-.1.1-.3 0-.3z" fill="#fc657e"/></g></g><g><g><path d="m85.328 0c-1.878 0-3.4 1.522-3.4 3.4s1.522 3.4 3.4 3.4 3.4-1.522 3.4-3.4-1.523-3.4-3.4-3.4z" fill="#87d147"/></g></g><g><g><path d="m78.928 30.2c-4.5-.8-8-4.3-8.9-8.7 0-.2-.4-.2-.4 0-.9 4.4-4.4 7.9-8.9 8.7-.2 0-.2.3 0 .4 4.5.8 8 4.3 8.9 8.7 0 .2.4.2.4 0 .9-4.4 4.4-7.9 8.9-8.7.2-.1.2-.4 0-.4z" fill="#f5c84c"/></g></g><g><g><g><path d="m96.462 182.577-9.872-9.872c-1.604-1.604-3.737-2.488-6.006-2.488-2.269 0-4.402.884-6.006 2.488l-40.034 40.034c-1.605 1.604-2.488 3.738-2.488 6.007s.884 4.402 2.488 6.006l9.872 9.873c1.656 1.656 3.831 2.483 6.006 2.483s4.351-.828 6.007-2.484l40.034-40.034c1.604-1.604 2.488-3.738 2.488-6.007s-.884-4.401-2.489-6.006zm-3.535 8.478-40.034 40.034c-1.362 1.363-3.578 1.363-4.943 0l-9.872-9.873c-.66-.66-1.023-1.537-1.023-2.471s.363-1.812 1.023-2.472l40.034-40.034c.682-.681 1.577-1.022 2.472-1.022s1.79.341 2.471 1.022l9.872 9.872c.66.66 1.023 1.538 1.023 2.472s-.363 1.812-1.023 2.472z"/></g></g></g><g><g><path d="m88.759 197.634-17.188-17.188c-.976-.977-2.56-.977-3.535 0-.977.976-.977 2.559 0 3.535l17.188 17.188c.488.488 1.128.732 1.768.732s1.28-.244 1.768-.732c.976-.976.976-2.559-.001-3.535z"/></g></g><g><g><g><path d="m106.714 171.448c-1.706-1.362-3.306-2.788-4.756-4.238-1.45-1.451-2.876-3.051-4.238-4.756-.444-.556-1.104-.896-1.814-.936-.712-.04-1.404.225-1.907.729l-10.701 10.702c-.977.976-.977 2.559 0 3.535l9.388 9.388c.469.469 1.104.732 1.768.732s1.299-.263 1.768-.732l10.701-10.702c.503-.503.768-1.197.729-1.907-.042-.711-.382-1.371-.938-1.815zm-12.261 9.119-5.853-5.853 6.999-6.999c.924 1.061 1.868 2.074 2.824 3.029.955.956 1.968 1.9 3.029 2.824z"/></g></g></g><g><g><path d="m155.564 198.889h-.697c-1.381 0-2.5 1.119-2.5 2.5s1.119 2.5 2.5 2.5h.697c1.381 0 2.5-1.119 2.5-2.5s-1.119-2.5-2.5-2.5z"/></g></g><g><g><path d="m135.564 97.889h-.697c-1.381 0-2.5 1.119-2.5 2.5s1.119 2.5 2.5 2.5h.697c1.381 0 2.5-1.119 2.5-2.5s-1.119-2.5-2.5-2.5z"/></g></g><g><g><path d="m138.111 118.257c-1.381 0-2.5 1.119-2.5 2.5v4.365c0 1.381 1.119 2.5 2.5 2.5s2.5-1.119 2.5-2.5v-4.365c0-1.381-1.119-2.5-2.5-2.5z"/></g></g><g><g><path d="m140.839 116.075h-5.455c-1.381 0-2.5 1.119-2.5 2.5s1.119 2.5 2.5 2.5h5.455c1.381 0 2.5-1.119 2.5-2.5s-1.119-2.5-2.5-2.5z"/></g></g><g><g><path d="m138.111 147.555c-1.381 0-2.5 1.119-2.5 2.5v4.365c0 1.381 1.119 2.5 2.5 2.5s2.5-1.119 2.5-2.5v-4.365c0-1.381-1.119-2.5-2.5-2.5z"/></g></g><g><g><path d="m140.839 154.102h-5.455c-1.381 0-2.5 1.119-2.5 2.5s1.119 2.5 2.5 2.5h5.455c1.381 0 2.5-1.119 2.5-2.5s-1.119-2.5-2.5-2.5z"/></g></g><g><g><path d="m128.565 129.19-3.78-2.183c-1.195-.691-2.725-.281-3.415.915-.69 1.195-.281 2.725.915 3.415l3.78 2.183c.394.228.823.335 1.248.335.864 0 1.704-.448 2.167-1.25.69-1.195.281-2.725-.915-3.415z"/></g></g><g><g><path d="m124.259 123.554c-1.197-.692-2.725-.28-3.415.915l-2.728 4.725c-.69 1.196-.281 2.725.915 3.415.394.228.824.335 1.248.335.864 0 1.705-.449 2.167-1.25l2.728-4.725c.691-1.196.281-2.725-.915-3.415z"/></g></g><g><g><path d="m153.937 143.838-3.78-2.182c-1.193-.69-2.724-.281-3.415.915-.69 1.196-.28 2.725.915 3.415l3.78 2.182c.394.228.823.335 1.248.335.863 0 1.704-.449 2.167-1.25.691-1.195.281-2.725-.915-3.415z"/></g></g><g><g><path d="m157.191 142.567c-1.193-.689-2.725-.281-3.415.915l-2.728 4.725c-.69 1.196-.28 2.725.915 3.415.394.228.823.335 1.248.335.863 0 1.704-.449 2.167-1.25l2.728-4.725c.691-1.195.281-2.724-.915-3.415z"/></g></g><g><g><path d="m129.48 142.571c-.692-1.196-2.22-1.607-3.416-.915l-3.78 2.182c-1.196.69-1.605 2.219-.915 3.415.463.802 1.303 1.25 2.167 1.25.424 0 .854-.108 1.248-.335l3.78-2.182c1.197-.69 1.606-2.219.916-3.415z"/></g></g><g><g><path d="m125.174 148.207-2.728-4.725c-.69-1.196-2.22-1.607-3.415-.915-1.196.69-1.605 2.219-.915 3.415l2.728 4.725c.463.802 1.303 1.25 2.167 1.25.424 0 .854-.108 1.248-.335 1.196-.69 1.606-2.219.915-3.415z"/></g></g><g><g><path d="m154.853 127.922c-.69-1.197-2.222-1.604-3.415-.915l-3.78 2.183c-1.195.69-1.605 2.219-.915 3.415.463.802 1.304 1.25 2.167 1.25.425 0 .854-.108 1.248-.335l3.78-2.183c1.195-.69 1.605-2.219.915-3.415z"/></g></g><g><g><path d="m158.106 129.194-2.728-4.725c-.69-1.197-2.222-1.605-3.415-.915-1.195.69-1.605 2.219-.915 3.415l2.728 4.725c.463.802 1.304 1.25 2.167 1.25.425 0 .854-.108 1.248-.335 1.196-.69 1.606-2.219.915-3.415z"/></g></g><g><g><g><path d="m174.481 175.038c-.797-.44-1.769-.413-2.54.072-18.296 11.505-41.923 11.475-60.188-.079-.77-.487-1.745-.516-2.542-.077-.798.439-1.294 1.279-1.294 2.19v44.928c0 18.708 15.22 33.928 33.928 33.928s33.928-15.22 33.928-33.928v-44.846c-.001-.91-.495-1.747-1.292-2.188zm-3.709 47.034c0 15.951-12.977 28.928-28.928 28.928s-28.928-12.977-28.928-28.928v-40.581c17.98 9.606 39.853 9.633 57.856.069z"/></g></g></g><g><g><g><path d="m175.127 8.159h-66.565c-5.828 0-10.57 4.742-10.57 10.57s4.742 10.57 10.57 10.57h66.565c5.828 0 10.57-4.742 10.57-10.57s-4.742-10.57-10.57-10.57zm0 16.139h-66.565c-3.071 0-5.57-2.499-5.57-5.57s2.499-5.57 5.57-5.57h66.565c3.071 0 5.57 2.499 5.57 5.57s-2.499 5.57-5.57 5.57z"/></g></g></g><g><g><g><path d="m173.272 24.298h-62.856c-1.381 0-2.5 1.119-2.5 2.5v50.572c0 .911.496 1.75 1.294 2.19.376.207.792.31 1.206.31.465 0 .929-.13 1.336-.387 18.266-11.553 41.893-11.583 60.188-.079.772.485 1.744.512 2.54.072.797-.44 1.291-1.278 1.291-2.188v-50.49c.001-1.381-1.118-2.5-2.499-2.5zm-2.5 48.655c-18.005-9.562-39.876-9.536-57.856.07v-43.725h57.856z"/></g></g></g><g><g><g><path d="m137.972 206.205c-5.412 0-9.815 4.403-9.815 9.816 0 5.412 4.403 9.815 9.815 9.815s9.815-4.403 9.815-9.815c0-5.413-4.403-9.816-9.815-9.816zm0 14.631c-2.655 0-4.815-2.16-4.815-4.815s2.16-4.816 4.815-4.816 4.815 2.161 4.815 4.816-2.16 4.815-4.815 4.815z"/></g></g></g><g><g><g><path d="m173.272 49.438h-62.856c-1.381 0-2.5 1.119-2.5 2.5v25.432c0 .911.496 1.75 1.294 2.19.376.207.792.31 1.206.31.465 0 .929-.129 1.336-.387 18.266-11.553 41.893-11.583 60.188-.079.772.485 1.744.512 2.54.072.797-.44 1.291-1.278 1.291-2.188v-25.35c.001-1.38-1.118-2.5-2.499-2.5zm-2.5 23.515c-18.005-9.562-39.876-9.536-57.856.07v-18.585h57.856z"/></g></g></g><g><g><g><path d="m185.398 83.769c-23.979-23.979-62.998-23.979-86.976 0-23.979 23.979-23.979 62.997 0 86.976 11.991 11.991 27.737 17.984 43.488 17.984 15.747 0 31.5-5.996 43.488-17.984 23.98-23.979 23.98-62.997 0-86.976zm-3.535 83.44c-22.029 22.03-57.875 22.03-79.906 0-22.03-22.03-22.03-57.875 0-79.905 11.015-11.015 25.484-16.522 39.953-16.522s28.938 5.507 39.953 16.522c22.03 22.03 22.03 57.876 0 79.905z"/></g></g></g><g><g><g><path d="m178.008 91.159c-9.647-9.648-22.467-14.962-36.096-14.963-.001 0-.001 0-.002 0-13.629 0-26.449 5.314-36.097 14.963-9.628 9.627-14.93 22.447-14.93 36.098s5.302 26.471 14.93 36.098c9.648 9.649 22.468 14.963 36.097 14.964h.002c13.629 0 26.449-5.314 36.097-14.963 9.628-9.627 14.931-22.447 14.93-36.098-.002-13.652-5.303-26.472-14.931-36.099zm-3.535 68.66c-8.705 8.706-20.269 13.5-32.563 13.499-12.293 0-23.857-4.794-32.561-13.499-8.683-8.683-13.465-20.247-13.465-32.563 0-12.315 4.782-23.879 13.465-32.563 8.704-8.705 20.269-13.499 32.563-13.499 12.293 0 23.856 4.794 32.561 13.498 8.683 8.684 13.465 20.248 13.465 32.563 0 12.317-4.782 23.881-13.465 32.564z"/></g></g></g><g><g><g><path d="m180.838 94.25c-.989-1.165-1.914-2.177-2.83-3.092-9.647-9.648-22.467-14.962-36.096-14.963-.001 0-.001 0-.002 0-13.629 0-26.449 5.314-36.097 14.963-.979.979-1.95 2.043-2.969 3.253-.379.451-.587 1.021-.587 1.61v62.469c0 .589.208 1.16.587 1.61 1.023 1.214 1.994 2.278 2.969 3.252 9.648 9.649 22.467 14.963 36.096 14.963h.002c13.63 0 26.449-5.314 36.097-14.963.917-.917 1.843-1.928 2.83-3.091.384-.452.594-1.025.594-1.618v-62.775c0-.592-.21-1.165-.594-1.618zm-4.406 63.467c-.677.773-1.322 1.466-1.959 2.103-8.704 8.705-20.269 13.499-32.563 13.499-12.293 0-23.857-4.794-32.561-13.499-.687-.687-1.376-1.428-2.091-2.25v-60.625c.713-.82 1.402-1.562 2.092-2.251 8.704-8.705 20.269-13.499 32.563-13.499 12.293 0 23.856 4.794 32.561 13.498.635.636 1.28 1.328 1.959 2.103v60.921z"/></g></g></g><g><g><g><path d="m155.972 98c-4.366 0-7.918 3.552-7.918 7.918s3.552 7.918 7.918 7.918 7.918-3.552 7.918-7.918-3.552-7.918-7.918-7.918zm0 10.836c-1.609 0-2.918-1.309-2.918-2.918s1.309-2.918 2.918-2.918 2.918 1.309 2.918 2.918-1.309 2.918-2.918 2.918z"/></g></g></g><g><g><g><path d="m138.111 124.409c-7.267 0-13.179 5.912-13.179 13.179s5.912 13.179 13.179 13.179 13.179-5.912 13.179-13.179-5.912-13.179-13.179-13.179zm0 21.358c-4.51 0-8.179-3.669-8.179-8.179s3.669-8.179 8.179-8.179 8.179 3.669 8.179 8.179-3.669 8.179-8.179 8.179z"/></g></g></g></g></g></svg>