<svg enable-background="new 0 0 256 256" height="512" viewBox="0 0 256 256" width="512" xmlns="http://www.w3.org/2000/svg"><g id="Layer_12"><g><g><g><path d="m122.615 182.353-2.466-4.271c-1.129-1.955-3.629-2.625-5.584-1.496l-49.418 28.532c-1.955 1.129-2.625 3.629-1.496 5.584l2.466 4.271c1.129 1.955 3.629 2.625 5.584 1.496l49.418-28.532c1.955-1.129 2.625-3.629 1.496-5.584z" fill="#9be5f9"/></g></g><g><g><path d="m60.536 93.596c-3.953-6.847-12.708-9.193-19.556-5.24l-15.45 8.92c-6.847 3.953-9.193 12.708-5.24 19.556l33.356 57.774 40.246-23.236z" fill="#fcdd86"/></g></g><g><g><path d="m61.854 173.063h46.472v19.065h-46.472z" fill="#3caadc" transform="matrix(.866 -.5 .5 .866 -79.898 67.008)"/></g></g><g><g><path d="m116.072 216.002-10.891-18.864-17.543 10.128 10.891 18.864c5.882-1.495 12.272.999 15.456 6.514-3.184-5.514-2.149-12.295 2.087-16.642z" fill="#70d6f9"/></g></g><g><g><path d="m53.81 162.111h46.472v13.107h-46.472z" fill="#9be5f9" transform="matrix(.866 -.5 .5 .866 -74.01 61.12)"/></g></g><g><g><path d="m37.259 81.826c-1.544-2.674-4.963-3.59-7.637-2.046l-5.841 3.372c-2.674 1.544-3.59 4.963-2.046 7.637l3.76 6.512c.012-.007.023-.016.036-.023l15.45-8.92c.012-.007.025-.012.038-.019z" fill="#f5c84c"/></g></g><g><g><path d="m74.961 173.063h20.257v19.065h-20.257z" fill="#70d6f9" transform="matrix(.866 -.5 .5 .866 -79.898 67.008)"/></g></g><g><g><path d="m202.983 2.5h-104.386c-3.387 0-6.132 2.745-6.132 6.132v140.267l17.513 30.334 4.586-2.648c1.955-1.129 4.455-.459 5.584 1.496l2.466 4.271c1.129 1.955.459 4.455-1.496 5.584l-15.938 9.202 4.828 8.362h116.325c3.387 0 6.132-2.745 6.132-6.132v-167.385z" fill="#dae6f1"/></g></g><g><g><path d="m202.983 2.5v23.351c0 3.387 2.745 6.132 6.132 6.132h23.351z" fill="#edf4fc"/></g></g><g><g><path d="m205.158 85.055-36.236-60.836c-2.914-4.893-10-4.893-12.914 0l-36.236 60.836c-2.984 5.01.626 11.362 6.457 11.362h72.471c5.832 0 9.442-6.352 6.458-11.362z" fill="#f5c84c"/></g></g><g><g><path d="m141.728 115.757c-1.953-1.951-5.118-1.952-7.071 0l-6.828 6.828-3.373-3.374c-1.953-1.952-5.118-1.952-7.071 0-1.953 1.953-1.953 5.119 0 7.071l6.909 6.909c1.953 1.952 5.118 1.953 7.071 0l10.363-10.363c1.953-1.952 1.953-5.118 0-7.071z" fill="#70d6f9"/></g></g><g><g><path d="m141.728 146.757c-1.953-1.951-5.118-1.952-7.071 0l-6.828 6.828-3.373-3.374c-1.953-1.952-5.118-1.952-7.071 0-1.953 1.953-1.953 5.119 0 7.071l6.909 6.909c1.953 1.952 5.118 1.953 7.071 0l10.363-10.363c1.953-1.952 1.953-5.118 0-7.071z" fill="#70d6f9"/></g></g><g><g><path d="m162.465 42.618c-2.761 0-5 2.239-5 5v13.765c0 2.761 2.239 5 5 5s5-2.239 5-5v-13.765c0-2.762-2.238-5-5-5z" fill="#818182"/></g></g><g><g><circle cx="162.465" cy="80" fill="#818182" r="5.5"/></g></g><g><g><path d="m207.642 115.535h-49.361c-1.381 0-2.5 1.119-2.5 2.5s1.119 2.5 2.5 2.5h49.361c1.381 0 2.5-1.119 2.5-2.5s-1.119-2.5-2.5-2.5z"/></g></g><g><g><path d="m187.961 126.494h-29.681c-1.381 0-2.5 1.119-2.5 2.5s1.119 2.5 2.5 2.5h29.681c1.381 0 2.5-1.119 2.5-2.5s-1.119-2.5-2.5-2.5z"/></g></g><g><g><path d="m207.642 146.535h-49.361c-1.381 0-2.5 1.119-2.5 2.5s1.119 2.5 2.5 2.5h49.361c1.381 0 2.5-1.119 2.5-2.5s-1.119-2.5-2.5-2.5z"/></g></g><g><g><path d="m187.961 157.494h-29.681c-1.381 0-2.5 1.119-2.5 2.5s1.119 2.5 2.5 2.5h29.681c1.381 0 2.5-1.119 2.5-2.5s-1.119-2.5-2.5-2.5z"/></g></g><g><g><path d="m255.925 149.2c-3.1-.6-5.6-3-6.2-6.1 0-.1-.3-.1-.3 0-.6 3.1-3.1 5.5-6.2 6.1-.1 0-.1.2 0 .3 3.1.6 5.6 3 6.2 6.1 0 .1.3.1.3 0 .6-3.1 3.1-5.5 6.2-6.1.1-.1.1-.3 0-.3z" fill="#87d147"/></g></g><g><g><path d="m188.596 225.8h-2.4v-2.3c0-1.8-1.4-3.2-3.2-3.2-1.7 0-3.2 1.4-3.2 3.1v2.4h-2.3c-1.8 0-3.2 1.4-3.2 3.2-.1 1.7 1.3 3.2 3.2 3.2h2.3v2.3c0 1.8 1.4 3.2 3.2 3.2 1.7 0 3.2-1.4 3.2-3.1v-2.4h2.3c1.8 0 3.2-1.4 3.2-3.2 0-1.7-1.4-3.2-3.1-3.2z" fill="#fc657e"/></g></g><g><g><circle cx="156.896" cy="242.6" fill="#f5c84c" r="3.4"/></g></g><g><g><path d="m73.896 17c-1.878 0-3.4 1.522-3.4 3.4s1.522 3.4 3.4 3.4 3.4-1.522 3.4-3.4-1.523-3.4-3.4-3.4z" fill="#70d6f9"/></g></g><g><g><path d="m69.496 44.2c-4.5-.8-8-4.3-8.9-8.7 0-.2-.4-.2-.4 0-.9 4.4-4.4 7.9-8.9 8.7-.2 0-.2.3 0 .4 4.5.8 8 4.3 8.9 8.7 0 .2.4.2.4 0 .9-4.4 4.4-7.9 8.9-8.7.2-.1.2-.4 0-.4z" fill="#f5c84c"/></g></g><g><g><path d="m28.641 79.824-23.976-41.528c-.69-1.196-2.219-1.607-3.415-.915-1.196.69-1.605 2.219-.915 3.415l23.976 41.528c.463.802 1.303 1.25 2.167 1.25.424 0 .854-.108 1.248-.335 1.196-.69 1.606-2.219.915-3.415z"/></g></g><g><g><g><path d="m116.15 231.395c-2.19-3.794-5.728-6.508-9.959-7.642-4.232-1.133-8.652-.551-12.446 1.639-7.832 4.522-10.525 14.573-6.003 22.405 3.035 5.256 8.559 8.198 14.232 8.198 2.781 0 5.597-.707 8.173-2.194 3.794-2.19 6.508-5.728 7.642-9.959s.552-8.653-1.639-12.447zm-3.191 11.152c-.788 2.942-2.675 5.4-5.313 6.923-5.443 3.144-12.431 1.271-15.575-4.173-3.144-5.445-1.271-12.432 4.173-15.575 1.757-1.014 3.707-1.533 5.683-1.533.99 0 1.987.13 2.969.394 2.942.788 5.4 2.675 6.923 5.313s1.929 5.709 1.14 8.651z"/></g></g></g><g><g><g><path d="m140.229 217.493c-2.19-3.794-5.728-6.508-9.959-7.642-4.232-1.133-8.652-.551-12.446 1.639-7.832 4.522-10.525 14.573-6.003 22.405 3.035 5.256 8.559 8.198 14.232 8.198 2.781 0 5.597-.707 8.173-2.194 3.794-2.19 6.508-5.728 7.642-9.959s.551-8.653-1.639-12.447zm-3.191 11.152c-.788 2.942-2.675 5.4-5.313 6.923-5.443 3.145-12.432 1.271-15.575-4.173s-1.271-12.432 4.173-15.575c1.757-1.014 3.707-1.533 5.683-1.533.99 0 1.987.13 2.969.394 2.942.788 5.4 2.675 6.923 5.313s1.928 5.709 1.14 8.651z"/></g></g></g><g><g><path d="m62.884 95.046c-.69-1.196-2.219-1.607-3.415-.915l-6.191 3.575c-1.196.69-1.605 2.219-.915 3.415.463.802 1.303 1.25 2.167 1.25.424 0 .854-.108 1.248-.335l6.191-3.575c1.196-.69 1.606-2.219.915-3.415z"/></g></g><g><g><path d="m68.967 106.29c-.691-1.196-2.219-1.607-3.415-.915l-6.191 3.575c-1.196.69-1.605 2.219-.915 3.415.463.802 1.303 1.25 2.167 1.25.424 0 .854-.108 1.248-.335l6.191-3.575c1.196-.691 1.605-2.22.915-3.415z"/></g></g><g><g><path d="m75.662 117.178c-.691-1.196-2.22-1.606-3.415-.915l-6.191 3.575c-1.196.69-1.605 2.22-.915 3.415.463.802 1.303 1.25 2.167 1.25.424 0 .854-.108 1.248-.335l6.191-3.575c1.196-.69 1.606-2.219.915-3.415z"/></g></g><g><g><path d="m81.745 128.421c-.69-1.196-2.22-1.607-3.415-.915l-6.191 3.575c-1.196.69-1.605 2.219-.915 3.415.463.802 1.303 1.25 2.167 1.25.424 0 .854-.108 1.248-.335l6.191-3.575c1.195-.69 1.605-2.219.915-3.415z"/></g></g><g><g><path d="m88.134 139.487c-.691-1.196-2.219-1.607-3.415-.915l-6.192 3.575c-1.196.69-1.605 2.219-.915 3.415.463.802 1.303 1.25 2.167 1.25.424 0 .854-.108 1.248-.335l6.192-3.575c1.196-.69 1.605-2.219.915-3.415z"/></g></g><g><g><g><path d="m124.78 181.103-2.466-4.271c-.88-1.524-2.301-2.614-4-3.069-1.701-.457-3.476-.221-4.999.658l-49.418 28.532c-1.524.88-2.614 2.301-3.069 4-.456 1.7-.222 3.475.658 4.999l2.466 4.271c.88 1.524 2.301 2.614 4 3.069.568.152 1.144.228 1.716.228 1.142 0 2.268-.3 3.283-.886l49.418-28.531c1.524-.88 2.615-2.3 3.07-4 .455-1.701.221-3.476-.659-5zm-4.172 3.705c-.109.41-.372.752-.74.964l-49.418 28.531c-.759.438-1.731.177-2.169-.581l-2.466-4.271c-.212-.367-.269-.795-.159-1.205s.373-.752.74-.964l49.418-28.532c.25-.144.522-.212.792-.212.549 0 1.084.285 1.378.793l2.466 4.271c.212.368.268.796.158 1.206z"/></g></g></g><g><g><g><path d="m112.144 177.983-49.443-85.637c-4.637-8.029-14.94-10.791-22.971-6.155l-15.45 8.92c-3.89 2.246-6.672 5.872-7.835 10.21-1.162 4.339-.565 8.87 1.68 12.76l49.442 85.637c.332.574.877.993 1.518 1.165.213.057.43.085.647.085.435 0 .867-.114 1.25-.335l40.246-23.236c1.196-.689 1.606-2.218.916-3.414zm-41.496 21.071-48.192-83.472c-3.258-5.643-1.317-12.883 4.325-16.141l15.45-8.92c5.642-3.257 12.883-1.317 16.141 4.325l48.192 83.472z"/></g></g></g><g><g><g><g><path d="m118.237 214.752-10.891-18.864c-.332-.574-.877-.993-1.518-1.165-.641-.17-1.322-.082-1.897.25l-17.543 10.129c-1.196.69-1.605 2.219-.915 3.415l10.891 18.864c.56.97 1.697 1.448 2.781 1.173 4.925-1.252 10.137.944 12.675 5.341.463.802 1.303 1.25 2.167 1.25.424 0 .854-.108 1.248-.335.802-.463 1.25-1.304 1.25-2.168 0-.424-.108-.854-.335-1.247-2.539-4.396-1.834-10.009 1.712-13.647.782-.802.935-2.026.375-2.996zm-8.587 10.383c-2.361-1.252-5.016-1.929-7.728-1.929-.702 0-1.409.045-2.115.138l-8.754-15.162 13.213-7.629 8.754 15.163c-2.105 2.746-3.25 6.057-3.37 9.419z"/></g></g></g></g><g><g><g><path d="m102.611 161.472-6.554-11.352c-.69-1.196-2.22-1.605-3.415-.915l-40.246 23.236c-.574.332-.993.877-1.165 1.518-.171.641-.082 1.323.25 1.897l6.554 11.351c.463.802 1.303 1.25 2.167 1.25.424 0 .854-.108 1.248-.335l40.246-23.236c.574-.332.993-.877 1.165-1.518.172-.639.082-1.322-.25-1.896zm-41.496 21.071-4.054-7.021 35.916-20.736 4.054 7.021z"/></g></g></g><g><g><g><path d="m43.184 87.087-3.759-6.511c-1.081-1.872-2.825-3.21-4.913-3.77-2.087-.559-4.268-.272-6.139.809l-5.841 3.372c-3.863 2.231-5.191 7.188-2.961 11.052l3.759 6.512c.335.581.889 1.002 1.538 1.17.207.054.417.08.627.08.449 0 .895-.121 1.286-.356.015-.008.031-.019.048-.03l15.352-8.863c.031-.016.062-.033.087-.048.574-.332.994-.877 1.165-1.518.172-.642.082-1.325-.249-1.899zm-16.775 6.796-2.509-4.345c-.852-1.476-.345-3.37 1.131-4.222l5.841-3.372c.477-.275 1.005-.416 1.541-.416.269 0 .539.035.805.106.797.214 1.464.726 1.877 1.44l2.508 4.344z"/></g></g></g><g><g><g><g><path d="m100.792 184.537-9.533-16.511c-.332-.574-.877-.993-1.518-1.165-.641-.17-1.322-.082-1.897.25l-17.543 10.128c-1.196.69-1.605 2.219-.915 3.415l9.533 16.511c.332.574.877.993 1.518 1.165.213.057.43.085.647.085.435 0 .867-.114 1.25-.335l17.543-10.128c1.196-.69 1.606-2.219.915-3.415zm-18.792 7.963-7.033-12.181 13.213-7.628 7.033 12.181z"/></g></g></g></g><g><g><g><path d="m234.233 30.215-29.483-29.483c-.468-.469-1.104-.732-1.767-.732h-104.386c-4.76 0-8.632 3.872-8.632 8.632v140.268c0 .439.116.87.335 1.25l17.513 30.334c.689 1.195 2.219 1.606 3.415.915l4.586-2.648c.758-.438 1.731-.177 2.169.581l2.466 4.271c.212.367.269.795.159 1.205s-.373.752-.74.964l-15.938 9.202c-1.196.69-1.605 2.219-.915 3.415l4.828 8.362c.447.773 1.272 1.25 2.165 1.25h116.325c4.76 0 8.632-3.872 8.632-8.632v-167.387c0-.663-.263-1.298-.732-1.767zm-4.268 169.153c0 2.002-1.629 3.632-3.632 3.632h-114.881l-2.856-4.947 13.772-7.952c1.524-.88 2.614-2.3 3.07-4s.222-3.475-.658-4.999l-2.466-4.271c-1.816-3.146-5.855-4.227-9-2.411l-2.421 1.398-15.928-27.589v-139.597c0-2.003 1.63-3.632 3.632-3.632h103.35l28.018 28.018z"/></g></g></g><g><g><g><path d="m234.233 30.215-29.483-29.483c-.714-.716-1.792-.93-2.724-.542-.935.387-1.543 1.298-1.543 2.31v23.351c0 4.76 3.872 8.632 8.632 8.632h23.351c1.011 0 1.923-.609 2.31-1.543.386-.935.172-2.01-.543-2.725zm-25.118-.733c-2.002 0-3.632-1.629-3.632-3.632v-17.314l20.947 20.947h-17.315z"/></g></g></g><g><g><g><path d="m207.306 83.776-36.236-60.837c-1.824-3.062-5.041-4.89-8.605-4.89s-6.781 1.828-8.605 4.89l-36.236 60.836c-1.867 3.135-1.906 6.901-.103 10.074s5.059 5.067 8.708 5.067h72.471c3.649 0 6.904-1.894 8.708-5.067s1.765-6.938-.102-10.073zm-4.244 7.603c-.903 1.589-2.533 2.538-4.36 2.538h-72.472c-1.828 0-3.458-.949-4.361-2.538s-.884-3.475.051-5.045l36.236-60.836c.913-1.533 2.524-2.449 4.309-2.449s3.396.916 4.309 2.449l36.236 60.836c.935 1.571.955 3.457.052 5.045z"/></g></g></g><g><g><g><g><path d="m143.496 113.989c-2.923-2.922-7.682-2.921-10.606.001l-5.06 5.06-1.606-1.606c-2.923-2.922-7.681-2.923-10.606 0-2.924 2.924-2.924 7.682 0 10.606l6.909 6.909c1.461 1.461 3.382 2.192 5.302 2.192s3.841-.731 5.304-2.192l10.363-10.363c1.417-1.417 2.197-3.3 2.197-5.303s-.78-3.887-2.197-5.304zm-3.535 7.072-10.363 10.362c-.976.975-2.562.974-3.537 0l-6.908-6.908c-.975-.975-.975-2.561 0-3.536.976-.975 2.563-.974 3.536 0l3.373 3.374c.469.469 1.105.732 1.768.732s1.299-.263 1.768-.732l6.827-6.827c.976-.975 2.563-.974 3.537-.001.974.975.974 2.561-.001 3.536z"/></g></g></g></g><g><g><g><g><path d="m143.496 144.989c-2.923-2.922-7.682-2.921-10.606.001l-5.06 5.06-1.606-1.606c-2.923-2.922-7.681-2.923-10.606 0-2.924 2.924-2.924 7.682 0 10.606l6.909 6.909c1.461 1.461 3.382 2.192 5.302 2.192s3.841-.731 5.304-2.192l10.363-10.363c1.417-1.417 2.197-3.3 2.197-5.303s-.78-3.887-2.197-5.304zm-3.535 7.072-10.363 10.362c-.976.975-2.562.974-3.537 0l-6.908-6.908c-.975-.975-.975-2.561 0-3.536.976-.975 2.563-.974 3.536 0l3.373 3.374c.469.469 1.105.732 1.768.732s1.299-.263 1.768-.732l6.827-6.827c.976-.975 2.563-.974 3.537-.001.974.975.974 2.561-.001 3.536z"/></g></g></g></g><g><g><g><g><path d="m162.465 40.118c-4.136 0-7.5 3.364-7.5 7.5v13.765c0 4.136 3.364 7.5 7.5 7.5s7.5-3.364 7.5-7.5v-13.765c0-4.136-3.364-7.5-7.5-7.5zm2.5 21.264c0 1.378-1.122 2.5-2.5 2.5s-2.5-1.122-2.5-2.5v-13.764c0-1.378 1.122-2.5 2.5-2.5s2.5 1.122 2.5 2.5z"/></g></g></g></g><g><g><g><path d="m162.465 72c-4.411 0-8 3.589-8 8s3.589 8 8 8 8-3.589 8-8-3.589-8-8-8zm0 11c-1.654 0-3-1.346-3-3s1.346-3 3-3 3 1.346 3 3-1.345 3-3 3z"/></g></g></g></g></g></svg>