<svg height="512" viewBox="0 0 64 64" width="512" xmlns="http://www.w3.org/2000/svg"><g id="Fill_1" data-name="Fill 1"><path d="m60 10v44a6.0048 6.0048 0 0 1 -6 6h-38a6.0048 6.0048 0 0 1 -6-6v-44a6.0048 6.0048 0 0 1 6-6h38a5.9669 5.9669 0 0 1 4.77 2.37 5.8691 5.8691 0 0 1 1.23 3.63z" fill="#fff"/></g><g id="Highlight_1" data-name="Highlight 1"><path d="m27 57v-11.5127l30-32.7441v41.2568a3.0033 3.0033 0 0 1 -3 3z" fill="#c1eeef"/></g><g id="Fill_2" data-name="Fill 2"><path d="m51 29h-6v-6h-6v6h-6v6h6v6h6v-6h6z" fill="#51882d"/><path d="m16 4h8a0 0 0 0 1 0 0v56a0 0 0 0 1 0 0h-8a6 6 0 0 1 -6-6v-44a6 6 0 0 1 6-6z" fill="#2583a5"/></g><g id="Line"><path d="m45 22h-6a1 1 0 0 0 -1 1v5h-5a1 1 0 0 0 -1 1v6a1 1 0 0 0 1 1h5v5a1 1 0 0 0 1 1h6a1 1 0 0 0 1-1v-5h5a1 1 0 0 0 1-1v-6a1 1 0 0 0 -1-1h-5v-5a1 1 0 0 0 -1-1zm5 8v4h-5a1 1 0 0 0 -1 1v5h-4v-5a1 1 0 0 0 -1-1h-5v-4h5a1 1 0 0 0 1-1v-5h4v5a1 1 0 0 0 1 1z"/><path d="m4 48a1 1 0 0 0 0 2h5v4a7.0081 7.0081 0 0 0 7 7h2a1 1 0 0 0 0-2h-2a5.0059 5.0059 0 0 1 -5-5v-4h5a1 1 0 0 0 0-2h-5v-15h5a1 1 0 0 0 0-2h-5v-10a1 1 0 0 0 -2 0v10h-5a1 1 0 0 0 0 2h5v15z"/><path d="m54 3h-38a7.0081 7.0081 0 0 0 -7 7v4h-5a1 1 0 0 0 0 2h12a1 1 0 0 0 0-2h-5v-4a5.0059 5.0059 0 0 1 5-5h38a5.0059 5.0059 0 0 1 5 5v31a1 1 0 0 0 2 0v-31a7.0081 7.0081 0 0 0 -7-7z"/><path d="m60 46a1 1 0 0 0 -1 1v7a5.0059 5.0059 0 0 1 -5 5h-29v-49a1 1 0 0 0 -2 0v50a1 1 0 0 0 1 1h30a7.0081 7.0081 0 0 0 7-7v-7a1 1 0 0 0 -1-1z"/></g></svg>