<svg height="512" viewBox="0 0 64 64" width="512" xmlns="http://www.w3.org/2000/svg"><g id="Fill_1" data-name="Fill 1"><g fill="#a4917d"><path d="m20 54h24a6 6 0 0 1 6 6 0 0 0 0 1 0 0h-36a0 0 0 0 1 0 0 6 6 0 0 1 6-6z"/><path d="m29 46h6v8h-6z"/><path d="m24 40h16v6h-16z"/></g><path d="m46 40 6.7574 6.7574a4.2427 4.2427 0 0 0 6 0 4.2427 4.2427 0 0 0 0-6l-8.7574-8.7574h-26l-12.7574-12.7574a4.2427 4.2427 0 0 0 -6 0 4.2427 4.2427 0 0 0 0 6l14.7574 14.7574z" fill="#c1eeef"/><path d="m37.6569 6.3431a8 8 0 0 0 -11.3138 0l11.3138 11.3138a8 8 0 0 0 0-11.3138z" fill="#a4917d"/></g><g id="Line"><path d="m57.707 38.293a1 1 0 0 0 -1.414 1.414l1.757 1.7574a3.2417 3.2417 0 0 1 0 4.5859 3.3214 3.3214 0 0 1 -4.5859 0l-6.7571-6.7573a.9993.9993 0 0 0 -.707-.293h-25.5859l-3.2071-3.207a1 1 0 0 0 -1.414 1.414l3.5 3.5a.9993.9993 0 0 0 .707.293h3v5a1 1 0 0 0 1 1h4v6h-8a7.0081 7.0081 0 0 0 -7 7 1 1 0 0 0 1 1h24a1 1 0 0 0 0-2h-22.8994a5.0085 5.0085 0 0 1 4.8994-4h24a5.0085 5.0085 0 0 1 4.8994 4h-4.8994a1 1 0 0 0 0 2h6a1 1 0 0 0 1-1 7.0081 7.0081 0 0 0 -7-7h-8v-6h4a1 1 0 0 0 1-1v-5h4.5859l6.4641 6.4644a5.2426 5.2426 0 1 0 7.4139-7.4144zm-23.707 14.707h-4v-6h4zm5-8h-14v-4h14z"/><path d="m12.293 33.707a1 1 0 0 0 1.414-1.414l-7.757-7.7574a3.2417 3.2417 0 0 1 0-4.5859 3.3214 3.3214 0 0 1 4.5859 0l12.7571 12.7573a.9993.9993 0 0 0 .707.293h25.5859l3.2071 3.207a1 1 0 0 0 1.414-1.414l-3.5-3.5a.9993.9993 0 0 0 -.707-.293h-3v-19a7.0081 7.0081 0 0 0 -7-7h-2.345a9.0131 9.0131 0 0 0 -12.0193.6362 1 1 0 0 0 0 1.4141l11.3143 11.3135a1 1 0 0 0 1.4141 0 9.0135 9.0135 0 0 0 1.1172-11.3638h.5187a5.0059 5.0059 0 0 1 5 5v19h-20.5859l-12.4641-12.4644a5.2426 5.2426 0 1 0 -7.4139 7.4144zm25.3134-17.5146-9.7988-9.7988a7.0006 7.0006 0 0 1 9.7988 9.7988z"/></g></svg>