<svg enable-background="new 0 0 256 256" height="512" viewBox="0 0 256 256" width="512" xmlns="http://www.w3.org/2000/svg"><g id="Layer_1"><g><path d="m134.572 96.369v121.32c-4.54 2.48-7.39 7.15-7.39 12.37 0 3.66 1.4 6.99 3.69 9.48-1.75 1.91-4.02 3.33-6.58 4.03-1.2.34-2.45.52-3.74.52h-93.6c-7.75 0-14.02-6.29-14.02-14.01v-133.71c0-7.49 3.01-14.66 8.33-19.91l17.46-17.28 7.08-7.01h55.9l7.08 7.01 17.46 17.28c5.33 5.25 8.33 12.42 8.33 19.91z" fill="#72c2e9"/><path d="m108.782 59.179h-70.06l7.08-7.01h55.9z" fill="#4ba5c8"/><path d="m134.572 209.419v8.27c-4.538 2.475-7.39 7.154-7.39 12.37 0 3.66 1.4 6.99 3.69 9.48-1.75 1.91-4.02 3.33-6.58 4.03-2.99-3.7-4.76-8.4-4.76-13.51 0-9.64 6.32-17.83 15.04-20.64z" fill="#4ba5c8"/><path d="m12.937 109.148h121.631v93.932h-121.631z" fill="#fc5d3d"/><path d="m62.148 189.485c-3.866 0-7-3.134-7-7v-8.407h-8.407c-3.866 0-7-3.134-7-7v-21.925c0-3.866 3.134-7 7-7h8.407v-8.407c0-3.866 3.134-7 7-7h21.925c3.866 0 7 3.134 7 7v8.407h8.407c3.866 0 7 3.134 7 7v21.925c0 3.866-3.134 7-7 7h-8.407v8.407c0 3.866-3.134 7-7 7z" fill="#b25035"/><path d="m112.173 11.912h-76.84c-2.761 0-5 2.238-5 4.999l-.003 30.265c0 2.761 2.238 5 4.999 5h76.84c2.762 0 5-2.238 5.001-5l.003-30.264c0-2.761-2.239-5-5-5z" fill="#fc5d3d"/><path d="m100.122 145.152h-15.407v-15.407h-21.925v15.407h-15.407v21.925h15.407v15.407h21.925v-15.407h15.407z" fill="#eee"/><path d="m155.6 216.029v28.06h-14.388c-4.09 0-7.78-1.75-10.34-4.55-2.29-2.49-3.69-5.82-3.69-9.48 0-5.211 2.848-9.893 7.39-12.37 1.98-1.06 4.24-1.66 6.64-1.66z" fill="#efefef"/><path d="m183.997 230.056c0 7.748-6.281 14.029-14.029 14.029h-14.368v-28.058h14.367c7.749 0 14.03 6.281 14.03 14.029z" fill="#fc5d3d"/><path d="m213.023 216.027v28.058h-14.385c-7.748 0-14.029-6.281-14.029-14.029 0-7.748 6.281-14.029 14.029-14.029z" fill="#efefef"/><path d="m241.421 230.056c0 7.748-6.281 14.029-14.029 14.029h-14.369v-28.058h14.369c7.748 0 14.029 6.281 14.029 14.029z" fill="#fc5d3d"/><path d="m184.311 187.969v28.058h-14.385c-7.748 0-14.029-6.281-14.029-14.029 0-7.748 6.281-14.029 14.029-14.029z" fill="#efefef"/><path d="m212.709 201.998c0 7.748-6.281 14.029-14.029 14.029h-14.369v-28.058h14.369c7.748 0 14.029 6.281 14.029 14.029z" fill="#fc5d3d"/><path d="m198.814 73.499c-24.429 0-44.262 19.792-44.258 44.26.001 8.392 2.375 16.784 7.119 24.085l-2.776 15.831 15.831-2.776c7.212 4.687 15.489 7.06 23.779 7.118 25.694.181 43.335-20.253 44.553-42.263 1.38-24.907-18.928-46.255-44.248-46.255z" fill="#13bf6d"/><path d="m183.609 138.83-11.729-11.729c-5.33-5.33-5.33-13.958.001-19.288 5.325-5.328 13.956-5.331 19.287.001l2.085 2.085 13.215-13.214c5.325-5.329 13.957-5.331 19.286.001 5.329 5.327 5.33 13.957-.001 19.287l-22.856 22.857c-5.328 5.33-13.959 5.332-19.288 0z" fill="#139c6e"/><g fill="#f0c020"><path d="m161.905 69.277c-3.961-1.309-8.051-2.453-10.348-12.345-2.115 9.112-5.504 10.745-10.348 12.345 7.9 2.61 9.092 6.933 10.348 12.345 2.165-9.329 5.746-10.824 10.348-12.345z"/><path d="m161.905 69.277c-3.961-1.309-8.051-2.453-10.348-12.345-2.115 9.112-5.504 10.745-10.348 12.345 7.9 2.61 9.092 6.933 10.348 12.345 2.165-9.329 5.746-10.824 10.348-12.345z"/><path d="m241.697 179.325c-3.961-1.309-8.051-2.453-10.348-12.345-2.115 9.112-5.504 10.745-10.348 12.345 7.9 2.61 9.092 6.933 10.348 12.345 2.165-9.329 5.746-10.824 10.348-12.345z"/><path d="m241.697 179.325c-3.961-1.309-8.051-2.453-10.348-12.345-2.115 9.112-5.504 10.745-10.348 12.345 7.9 2.61 9.092 6.933 10.348 12.345 2.165-9.329 5.746-10.824 10.348-12.345z"/></g><path d="m188.559 133.881-11.729-11.729c-2.593-2.592-2.593-6.796 0-9.388 2.591-2.592 6.796-2.592 9.387 0l7.036 7.035 18.164-18.163c2.591-2.592 6.796-2.592 9.387 0 2.593 2.592 2.593 6.796 0 9.388l-22.857 22.857c-2.592 2.592-6.798 2.592-9.388 0z" fill="#efefef"/><path d="m22.937 111.648c-1.381 0-2.5-1.119-2.5-2.5v-12.78c0-5.438 2.221-10.751 6.094-14.579l17.458-17.272c.979-.971 2.563-.963 3.535.019.971.981.963 2.564-.019 3.536l-17.46 17.273c-2.929 2.895-4.608 6.912-4.608 11.023v12.78c0 1.381-1.119 2.5-2.5 2.5z" fill="#c5e5fe"/><path d="m22.937 232.579c-1.381 0-2.5-1.119-2.5-2.5v-3c0-1.381 1.119-2.5 2.5-2.5s2.5 1.119 2.5 2.5v3c0 1.381-1.119 2.5-2.5 2.5zm0-13c-1.381 0-2.5-1.119-2.5-2.5v-14c0-1.381 1.119-2.5 2.5-2.5s2.5 1.119 2.5 2.5v14c0 1.381-1.119 2.5-2.5 2.5z" fill="#c5e5ff"/><path d="m22.937 205.579c-1.381 0-2.5-1.119-2.5-2.5v-93.93c0-1.381 1.119-2.5 2.5-2.5s2.5 1.119 2.5 2.5v93.93c0 1.381-1.119 2.5-2.5 2.5z" fill="#ffcbc3"/><path d="m162.739 66.752c-3.729-1.228-6.642-2.022-8.591-10.421-.635-2.737-4.548-2.73-5.181 0-1.907 8.213-4.566 9.092-8.591 10.422-2.424.801-2.429 4.248 0 5.051 6.686 2.209 7.444 5.476 8.591 10.421.637 2.743 4.545 2.742 5.182 0 1.905-8.212 4.709-9.139 8.591-10.421 2.423-.802 2.429-4.25-.001-5.052zm-11.129 6.989c-.942-1.587-2.25-3.089-4.164-4.403 1.548-1.062 2.934-2.504 4.121-4.638 1.2 2.161 2.566 3.592 3.977 4.601-1.472 1.036-2.793 2.424-3.934 4.44z"/><path d="m233.94 166.379c-.635-2.737-4.548-2.73-5.181 0-1.907 8.213-4.566 9.091-8.591 10.422-2.424.801-2.429 4.248 0 5.051 6.686 2.209 7.444 5.476 8.591 10.421.637 2.743 4.545 2.742 5.182 0 1.905-8.212 4.709-9.139 8.591-10.421 2.424-.801 2.429-4.249 0-5.051-3.73-1.229-6.642-2.024-8.592-10.422zm-2.538 17.41c-.942-1.587-2.25-3.089-4.164-4.403 1.549-1.062 2.935-2.504 4.121-4.638 1.2 2.161 2.566 3.592 3.978 4.601-1.473 1.036-2.794 2.424-3.935 4.44z"/><path d="m84.715 127.245h-21.925c-1.381 0-2.5 1.119-2.5 2.5v12.907h-12.907c-1.381 0-2.5 1.119-2.5 2.5v21.925c0 1.381 1.119 2.5 2.5 2.5h12.907v12.907c0 1.381 1.119 2.5 2.5 2.5h21.925c1.381 0 2.5-1.119 2.5-2.5v-12.907h12.907c1.381 0 2.5-1.119 2.5-2.5v-21.925c0-1.381-1.119-2.5-2.5-2.5h-12.907v-12.907c0-1.381-1.119-2.5-2.5-2.5zm12.907 20.407v16.925h-12.907c-1.381 0-2.5 1.119-2.5 2.5v12.907h-16.925v-12.907c0-1.381-1.119-2.5-2.5-2.5h-12.907v-16.925h12.907c1.381 0 2.5-1.119 2.5-2.5v-12.907h16.925v12.907c0 1.381 1.119 2.5 2.5 2.5z"/><path d="m114.062 203.079c0-1.38-1.12-2.5-2.49-2.5-1.38 0-2.51 1.12-2.51 2.5s1.13 2.5 2.51 2.5c1.37 0 2.49-1.12 2.49-2.5z"/><path d="m227.391 213.53h-16.89c2.9-2.98 4.71-7.05 4.71-11.53-.01-9.11-7.42-16.53-16.53-16.53h-28.76c-9.11 0-16.52 7.42-16.53 16.53.01 4.48 1.81 8.55 4.72 11.53h-16.9c-1.4 0-2.79.18-4.14.53v-117.69c0-8.146-3.266-15.967-9.07-21.69l-20.21-20h4.38c4.13 0 7.5-3.37 7.5-7.5v-30.27c0-4.13-3.36-7.5-7.5-7.5h-76.84c-4.13 0-7.5 3.37-7.5 7.5v30.27c0 4.14 3.35 7.5 7.5 7.5h4.38l-20.21 20c-5.664 5.611-9.07 13.326-9.07 21.69v59.41c0 1.37 1.12 2.49 2.5 2.49s2.5-1.12 2.5-2.49v-44.13h116.64v88.93h-10.51c-1.37 0-2.49 1.12-2.49 2.5s1.12 2.5 2.49 2.5h10.51v10.71c-4.59 3.08-7.39 8.22-7.39 13.77 0 3.3.99 6.48 2.8 9.17-1.531 1.18-3.713 2.008-4.77 2.14-.342.09-1.287.22-2.16.22h-93.6c-6.34-.01-11.51-5.17-11.52-11.51v-24.5h86.13c1.38 0 2.51-1.12 2.51-2.5s-1.13-2.5-2.51-2.5h-86.13v-24.8c0-1.38-1.12-2.5-2.5-2.5s-2.5 1.12-2.5 2.5v54.3c0 9.1 7.41 16.51 16.52 16.51h93.6c3.596 0 7.538-1.292 10.34-3.65 2.91 2.33 6.54 3.65 10.32 3.65h28.76c6.13-.01 11.48-3.37 14.33-8.34 2.85 4.97 8.2 8.34 14.34 8.34h28.75c9.11-.01 16.53-7.42 16.53-16.53 0-9.12-7.42-16.53-16.53-16.53zm-127.51-199.12h12.29c1.38 0 2.5 1.12 2.5 2.5v30.27c0 1.37-1.12 2.5-2.5 2.5-11.547 0-12.29-.01-12.29-.01zm-23.63 0h18.63v35.26h-18.63zm-23.63 0h18.63v35.26h-18.63zm-17.29 35.27c-1.38 0-2.5-1.12-2.5-2.5v-30.27c0-1.38 1.12-2.5 2.5-2.5h12.29v35.26c-5.761 0-12.29.01-12.29.01zm-19.9 56.97v-10.28c0-6.77 2.77-13.37 7.59-18.13l23.8-23.56h53.86l23.8 23.56c4.82 4.75 7.59 11.36 7.59 18.13v10.28zm137.67 134.94h-11.89c-6.342 0-11.53-5.136-11.53-11.53 0-6.182 4.965-11.53 11.53-11.53h11.89zm16.87 0h-11.87v-23.06h11.87c6.34.01 11.51 5.18 11.52 11.53-.01 6.34-5.18 11.52-11.52 11.53zm-.05-28.06c-6.34-.01-11.51-5.18-11.53-11.53.02-6.35 5.19-11.52 11.53-11.53h11.89v23.06zm14.38 8.34c-.7-1.22-1.54-2.34-2.51-3.34h5.03c-.98 1-1.82 2.12-2.52 3.34zm2.51-8.34v-23.06h11.87c6.34.01 11.52 5.18 11.53 11.53-.01 6.34-5.19 11.52-11.53 11.53zm23.71 28.06h-11.88c-6.35-.01-11.52-5.19-11.53-11.53.01-6.35 5.18-11.52 11.53-11.53h11.88zm16.87 0h-11.87v-23.06h11.87c6.35.01 11.52 5.18 11.53 11.53-.01 6.34-5.18 11.52-11.53 11.53zm-214.46-73.31c1.38 0 2.5-1.13 2.5-2.51 0-1.37-1.12-2.49-2.5-2.49s-2.5 1.12-2.5 2.49c0 1.38 1.12 2.51 2.5 2.51z"/><path d="m243.932 130.059c.01 0 .01-.01.01-.01.36-1.33-.43-2.71-1.76-3.07-1.311-.36-2.721.46-3.07 1.76-.36 1.33.43 2.7 1.76 3.06 1.361.37 2.713-.448 3.06-1.74z"/><path d="m245.541 119.628c.922-27.409-20.846-48.63-46.72-48.63h-.02c-25.791 0-46.75 20.909-46.75 46.76 0 8.72 2.42 17.23 6.989 24.61l-2.609 14.88c-.303 1.725 1.238 3.184 2.899 2.89l14.88-2.61c7.37 4.57 15.87 6.99 24.591 6.99h.029c17.708 0 33.254-9.857 41.21-24.67.625-1.152.259-2.697-1.02-3.39-1.295-.682-2.767-.136-3.38 1.02-6.921 12.905-20.64 22.04-36.83 22.04-8.11 0-15.96-2.32-22.72-6.72-.521-.34-1.181-.47-1.79-.36l-12.33 2.16 2.17-12.32c.1-.62-.03-1.27-.37-1.8-4.39-6.76-6.72-14.61-6.72-22.72.02-23.132 18.713-41.76 41.76-41.76 23.046 0 42.597 18.921 41.729 43.43-.05 1.38 1.021 2.54 2.4 2.6 1.413.071 2.543-1.02 2.602-2.4z"/><path d="m209.649 99.868-16.396 16.396-5.268-5.268c-3.571-3.571-9.353-3.571-12.923 0-3.57 3.569-3.573 9.352 0 12.924l11.729 11.729c3.568 3.571 9.353 3.571 12.922 0l22.857-22.857c3.57-3.569 3.573-9.351.001-12.924-3.57-3.57-9.353-3.572-12.922 0zm9.386 9.388-22.858 22.858c-1.615 1.616-4.235 1.616-5.85 0-.001 0-.001 0-.001 0l-11.729-11.73c-1.614-1.614-1.621-4.231.001-5.853 1.611-1.612 4.231-1.62 5.851.001l7.036 7.036c.977.976 2.559.976 3.535 0l18.165-18.164c1.611-1.612 4.231-1.62 5.851.001 1.614 1.613 1.619 4.23-.001 5.851z"/></g></g></svg>