<svg id="Capa_1" enable-background="new 0 0 512 512" height="512" viewBox="0 0 512 512" width="512" xmlns="http://www.w3.org/2000/svg"><g><g><g clip-rule="evenodd" fill-rule="evenodd"><path d="m64.569 7.5v474.5h186.378c-9.947-17.209-7.559-39.597 7.164-54.32 16.957-16.957 44.078-17.55 61.748-1.783v-3.898c0-12.375 10.197-22.5 22.572-22.5s22.5 10.125 22.5 22.5v30h60v-444.499h-360.362z" fill="#f8fafc"/><path d="m258.111 427.68c-14.723 14.723-17.111 37.111-7.164 54.32 14.638 25.326 50.376 30.411 70.908 9.211-1.281-2.815-1.996-5.934-1.996-9.211v-56.103c-17.669-15.767-44.791-15.174-61.748 1.783z" fill="#faef93"/><path d="m319.86 452v30c0 12.321 10.142 22.5 22.572 22.5 12.396 0 22.5-10.146 22.5-22.5v-30z" fill="#f8fafc"/><path d="m319.86 452h45.072v-30c0-12.375-10.125-22.5-22.5-22.5s-22.572 10.124-22.572 22.5z" fill="#9ce3bf"/><path d="m364.931 452v30c0 5.456-1.968 10.476-5.231 14.381 1.68.404 3.431.618 5.23.618h30v-45h-29.999z" fill="#faef93"/><path d="m394.931 452v45h30c12.375 0 22.499-10.125 22.499-22.5s-10.124-22.5-22.499-22.5z" fill="#9ce3bf"/><path d="m64.569 7.5v474.5h22.5v-474.5zm161.707 474.5h24.671c-9.947-17.209-7.559-39.597 7.164-54.32 16.957-16.957 44.078-17.55 61.748-1.783v-3.898c0-12.375 10.197-22.5 22.572-22.5s22.5 10.125 22.5 22.5v30h60v-22.5h-37.5v-7.5c0-24.793-20.207-45-44.999-45-14.309 0-27.118 6.731-35.391 17.194-22.492-5.869-47.349.086-64.839 17.576-18.619 18.62-24.471 46.072-15.926 70.231z" fill="#d6e1ef"/><path d="m258.111 427.68c-14.723 14.723-17.111 37.111-7.164 54.32 10.479 18.13 31.772 25.885 50.558 21.051-45.279-11.428-45.029-75.633-.325-87.127-14.906-3.835-31.396.083-43.069 11.756z" fill="#efc17a"/></g><g><path d="m402.433 75h-15v-15h15zm0-30h-15v-15h15z" fill="#fff"/></g></g><g><path d="m417.432 384.5h15v15h-15z"/><path d="m72.069 15h345.363v354.5h15v-369.5h-375.363v45h15z"/><path d="m432.432 445.45v-30.95h-15v30h-45v-22.501c0-16.542-13.458-29.999-30-29.999-13.348 0-24.687 8.723-28.604 20.753-19.804-10.134-44.59-6.805-61.02 9.624-14.084 14.085-18.476 34.247-13.178 52.123h-167.561v-414.5h-15v429.5h189.791c1.744 2.502 3.717 4.893 5.947 7.123 9.767 9.766 23.341 15.348 37.294 15.348.114 0 .231 0 .347-.001 10.958-.073 21.3-3.451 29.907-9.627 5.498 5.933 13.358 9.657 22.077 9.657 7.655 0 14.646-2.886 19.951-7.621.847.072 1.697.121 2.548.121h60c16.542 0 30-13.458 30-30.001 0-13.953-9.575-25.71-22.499-29.049zm-45.001 14.05v30h-15.948c.619-2.398.949-4.911.949-7.5v-22.5zm-44.999-52.5c8.271 0 15 6.729 15 14.999v22.501h-30.072v-22.501c-.001-8.27 6.761-14.999 15.072-14.999zm-30.073 22.453v41.868l-43.105-43.105c13.043-8.631 30.368-8.302 43.105 1.237zm-22.01 67.517c-10.054.077-19.905-3.925-26.934-10.954-12.805-12.804-14.395-32.643-4.77-47.195l52.005 52.005c-5.908 3.946-12.903 6.095-20.301 6.144zm52.083.03c-8.311 0-15.072-6.729-15.072-15v-22.5h30.072v22.5c0 8.271-6.73 15-15 15zm82.499-7.5h-22.5v-30h22.5c8.271 0 15 6.729 15 14.999 0 8.272-6.73 15.001-15 15.001z"/><path d="m184.568 86.249c0-14.475-11.775-26.25-26.25-26.25h-41.25v90.001h15v-37.5h11.893l34.927 34.926-26.517 26.516 10.607 10.607 26.516-26.517 26.517 26.518 10.607-10.607-26.518-26.517 26.518-26.517-10.607-10.607-26.517 26.518-25.048-25.049c11.527-2.769 20.122-13.157 20.122-25.522zm-26.25 11.251h-26.25v-22.501h26.25c6.203 0 11.25 5.047 11.25 11.25 0 6.204-5.047 11.251-11.25 11.251z"/><path d="m117.068 217.499h120.183v15h-120.183z"/><path d="m117.068 254.998h240.364v15h-240.364z"/><path d="m237.251 337.497h120.182v15h-120.182z"/><path d="m117.068 292.498h240.364v15h-240.364z"/></g></g></svg>