<svg height="512" viewBox="0 0 64 64" width="512" xmlns="http://www.w3.org/2000/svg"><g id="Fill_1" data-name="Fill 1"><path d="m52 60h-40v-56h30l10 10z" fill="#fff"/></g><g id="Highlight_1" data-name="Highlight 1"><path d="m17.83 57 28.571-40h2.599v40z" fill="#c1eeef"/></g><g id="Fill_2" data-name="Fill 2"><path d="m41 31h-6v-6h-6v6h-6v6h6v6h6v-6h6z" fill="#51882d"/></g><g id="Line"><path d="m35 24h-6a1 1 0 0 0 -1 1v5h-5a1 1 0 0 0 -1 1v6a1 1 0 0 0 1 1h5v5a1 1 0 0 0 1 1h6a1 1 0 0 0 1-1v-5h5a1 1 0 0 0 1-1v-6a1 1 0 0 0 -1-1h-5v-5a1 1 0 0 0 -1-1zm5 8v4h-5a1 1 0 0 0 -1 1v5h-4v-5a1 1 0 0 0 -1-1h-5v-4h5a1 1 0 0 0 1-1v-5h4v5a1 1 0 0 0 1 1z"/><path d="m12 31a1 1 0 0 0 -1 1v28a1 1 0 0 0 1 1h29a1 1 0 0 0 0-2h-28v-27a1 1 0 0 0 -1-1z"/><path d="m53 20a1 1 0 0 0 -2 0v39h-4a1 1 0 0 0 0 2h5a1 1 0 0 0 1-1z"/><path d="m12 27a1 1 0 0 1 -1-1v-22a1 1 0 0 1 1-1h30a.9938.9938 0 0 1 .6729.2607l.0019.0015.0322.0308 10 10a1 1 0 0 1 -.707 1.707h-10a1 1 0 0 1 -1-1v-9h-28v21a1 1 0 0 1 -1 1zm31-14h6.5859l-6.5859-6.5859z"/></g></svg>