<svg height="512" viewBox="0 0 64 64" width="512" xmlns="http://www.w3.org/2000/svg"><g id="Fill_1" data-name="Fill 1"><path d="m31.9543 59.9863.0457.0137.0457-.0137c11.8436-3.5531 19.9543-14.4541 19.9543-24.9858v-24.0005l-20-7-20 7v24.0005c0 10.5317 8.1107 21.4327 19.9543 24.9858l.0457.0137.0457-.0137z" fill="#fff"/></g><g id="Highlight_1" data-name="Highlight 1"><path d="m31.999 56.8574a25.73 25.73 0 0 1 -9.7812-6.0068l1.2129-1.6934a22.8474 22.8474 0 0 0 7.3779 5.0957l1.19.5157 1.1905-.5147a22.925 22.925 0 0 0 13.8109-21.0839v-17.0157l2-2.7959v21.6416c0 9.2979-7.252 18.5518-17.001 21.8574z" fill="#c1eeef"/></g><g id="Fill_2" data-name="Fill 2"><path d="m41 27h-6v-6h-6v6h-6v6h6v6h6v-6h6z" fill="#51882d"/></g><g id="Line"><path d="m11 35.0005c0 11.44 8.6914 22.3511 20.7148 25.958a.9556.9556 0 0 0 .2686.0352 1.2527 1.2527 0 0 0 .35-.0494 28.8993 28.8993 0 0 0 14.0254-9.3076 1 1 0 0 0 -1.543-1.2734 26.9361 26.9361 0 0 1 -12.8168 8.5913c-10.849-3.3696-18.999-13.6235-18.999-23.9541v-15.0005a1 1 0 0 0 -2 0z"/><path d="m53 11a1 1 0 0 0 -.67-.9438l-20-7a.9942.9942 0 0 0 -.66 0l-20 7a1 1 0 0 0 -.67.9438v3a1 1 0 0 0 2 0v-2.29l19-6.65 19 6.65v21.457a27.0914 27.0914 0 0 1 -3.002 12.3745 1 1 0 0 0 1.7774.917 29.1007 29.1007 0 0 0 3.2246-13.2915z"/><path d="m29 40h6a1 1 0 0 0 1-1v-5h5a1 1 0 0 0 1-1v-6a1 1 0 0 0 -1-1h-5v-5a1 1 0 0 0 -1-1h-6a1 1 0 0 0 -1 1v5h-5a1 1 0 0 0 -1 1v6a1 1 0 0 0 1 1h5v5a1 1 0 0 0 1 1zm-5-8v-4h5a1 1 0 0 0 1-1v-5h4v5a1 1 0 0 0 1 1h5v4h-5a1 1 0 0 0 -1 1v5h-4v-5a1 1 0 0 0 -1-1z"/></g></svg>