<?xml version="1.0" encoding="utf-8"?>
<!-- Generator: Adobe Illustrator 25.3.1, SVG Export Plug-In . SVG Version: 6.00 Build 0)  -->
<svg version="1.1" id="Layer_1" xmlns="http://www.w3.org/2000/svg" xmlns:xlink="http://www.w3.org/1999/xlink" x="0px" y="0px"
	 viewBox="0 0 512 512" style="enable-background:new 0 0 512 512;" xml:space="preserve">
<path d="M236,346v-70h-70c-11,0-20-9-20-20c0-11,9-20,20-20h70v-70c0-11,9-20,20-20s20,9,20,20v70h70c11,0,20,9,20,20
	c0,11-9,20-20,20h-70v70c0,11-9,20-20,20S236,357,236,346z M437,75C388.7,26.6,324.4,0,256,0S123.3,26.6,75,75S0,187.6,0,256
	s26.6,132.7,75,181s112.6,75,181,75c46.8,0,92.6-12.8,132.5-36.9c9.4-5.7,12.5-18,6.7-27.5c-5.7-9.4-18-12.5-27.5-6.7
	C334.1,461.2,295.5,472,256,472c-119.1,0-216-96.9-216-216S136.9,40,256,40s216,96.9,216,216c0,42.6-12.7,84-36.6,119.9
	c-6.1,9.2-3.7,21.6,5.5,27.7c9.2,6.1,21.6,3.7,27.7-5.5C497,355.7,512,306.5,512,256C512,187.6,485.4,123.3,437,75z"/>
</svg>
