<?xml version="1.0" encoding="utf-8"?>
<!-- Generator: Adobe Illustrator 25.3.1, SVG Export Plug-In . SVG Version: 6.00 Build 0)  -->
<svg version="1.1" id="Layer_1" xmlns="http://www.w3.org/2000/svg" xmlns:xlink="http://www.w3.org/1999/xlink" x="0px" y="0px"
	 viewBox="0 0 511 511" style="enable-background:new 0 0 511 511;" xml:space="preserve">
<path d="M510,255.5c0,50.4-15,99.5-43.3,141.8c-3.8,5.8-10.2,8.9-16.6,8.9c-3.8,0-7.7-1.1-11.1-3.4c-9.2-6.1-11.6-18.5-5.5-27.7
	c23.9-35.8,36.6-77.1,36.6-119.6c0-18.3-2.3-36.4-6.8-53.9c-2.7-10.7,3.7-21.6,14.4-24.3c10.7-2.7,21.6,3.7,24.3,14.4
	C507.3,212.4,510,233.9,510,255.5z M366,440c-33.5,20.3-72.1,31-111.5,31c-118.9,0-215.6-96.7-215.6-215.6S135.6,39.9,254.5,39.9
	c44,0,86.3,13.2,122.4,38.1c9.1,6.3,21.5,4,27.8-5.1c6.3-9.1,4-21.5-5.1-27.8C356.8,15.6,306.7,0,254.5,0
	C186.3,0,122.1,26.6,73.8,74.8S-1,187.3-1,255.5s26.6,132.4,74.8,180.7S186.3,511,254.5,511c46.7,0,92.4-12.7,132.2-36.8
	c9.4-5.7,12.4-18,6.7-27.4C387.7,437.3,375.4,434.3,366,440z M256.4,313.4c-3.2,0.1-6.1-1-8.4-3.2l-104.5-99.1
	c-8-7.6-20.6-7.3-28.2,0.7c-7.6,8-7.3,20.6,0.7,28.2l104.5,99.1c9.7,9.2,22.1,14.2,35.4,14.2c0.7,0,1.4,0,2.1,0
	c14-0.6,26.9-6.6,36.2-17.1c0.2-0.3,0.5-0.5,0.7-0.8l210.6-262c6.9-8.6,5.5-21.2-3-28.1c-8.6-6.9-21.2-5.5-28.1,3L264.3,309.9
	C262.2,312,259.4,313.3,256.4,313.4z"/>
</svg>
