<?xml version="1.0" encoding="utf-8"?>
<!-- Generator: Adobe Illustrator 25.3.1, SVG Export Plug-In . SVG Version: 6.00 Build 0)  -->
<svg version="1.1" id="Layer_1" xmlns="http://www.w3.org/2000/svg" xmlns:xlink="http://www.w3.org/1999/xlink" x="0px" y="0px"
	 viewBox="0 0 511 511" style="enable-background:new 0 0 511 511;" xml:space="preserve">
<path d="M329.9,324.9c7.8-7.8,7.7-20.4-0.1-28.2c-7.8-7.8-20.4-7.7-28.2,0.1L182,417.3l-87.5-87.8L266.4,157l101.1,101.1
	c7.8,7.8,20.4,7.8,28.2,0l0.8-0.8l92.4-90.9c0,0,0.1-0.1,0.1-0.1c25.4-25.4,24.2-51,18.8-68.1c-5.4-17.2-17.5-34.4-39.1-56
	c-21.6-21.6-38.9-33.6-56-39.1C395.7-2.2,370-3.4,344.6,22l-293,294c-2.4,2.4-4.2,5.4-5.1,8.7l-44.8,161c-1.9,6.9,0,14.4,5.1,19.5
	c3.8,3.8,8.9,5.8,14.1,5.8c1.8,0,3.6-0.2,5.4-0.8l159.5-45.3c3.8-0.7,7.5-2.6,10.5-5.5L329.9,324.9z M400.7,41.1
	c13.9,4.4,29.4,18.8,39.9,29.3c10.5,10.5,24.9,26,29.3,39.9c2.4,7.4,2.9,15.9-9,27.8l-26.1,25.7L347,76.1l25.8-25.9
	C384.8,38.3,393.3,38.8,400.7,41.1z M318.9,104.3l87.5,87.5L381.7,216l-87.2-87.2L318.9,104.3z M87.8,451.4l-27.5-27.6L76,367.4
	l67.8,68L87.8,451.4z M511,490.2c0,11-8.9,19.9-19.9,19.9H249c-11,0-19.9-8.9-19.9-19.9s8.9-19.9,19.9-19.9h242.1
	C502.1,470.3,511,479.2,511,490.2z"/>
</svg>
