<?xml version="1.0" encoding="utf-8"?>
<!-- Generator: Adobe Illustrator 25.3.1, SVG Export Plug-In . SVG Version: 6.00 Build 0)  -->
<svg version="1.1" id="Layer_1" xmlns="http://www.w3.org/2000/svg" xmlns:xlink="http://www.w3.org/1999/xlink" x="0px" y="0px"
	 viewBox="0 0 512 512" style="enable-background:new 0 0 512 512;" xml:space="preserve">
<path d="M256,512c-0.1,0-0.3,0-0.4,0c-11,0-20-9-20-20c0-11,9-20,20-20h0.4c118,0,214.9-95.9,216-213.9
	c0.5-50.3-16.7-99.5-48.4-138.4c-13.7-16.8-12.5-41,2.8-56.3l23.4-23.3l-75-0.1c0,0,0,0,0,0c-3.5,0-5.8,1.8-6.9,2.9
	c-1.1,1.1-2.9,3.4-2.9,6.9l0,75.5c7.7-5,18.1-4.2,24.9,2.4c7.9,7.7,8,20.4,0.3,28.3l-7.8,8c-0.1,0.1-0.1,0.1-0.2,0.2
	c-9.6,9.6-23.9,12.5-36.5,7.3c-12.6-5.2-20.7-17.4-20.7-31L325,49.8c0-13.3,5.2-25.8,14.6-35.2C349,5.2,361.5,0,374.8,0h0l90.7,0.1
	c13.6,0,25.8,8.2,31,20.7c5.2,12.6,2.3,26.9-7.3,36.5l-34.5,34.4c-0.7,0.7-0.7,1.9,0,2.7c37.6,46.1,58,104.4,57.4,164
	C510.7,398.4,395.9,512,256,512z M173.4,497.4c9.4-9.4,14.6-21.9,14.6-35.2l-0.1-90.7c0-13.6-8.2-25.8-20.7-31
	c-12.6-5.2-26.9-2.3-36.5,7.3c-0.1,0.1-0.1,0.1-0.2,0.2l-7.8,8c-7.7,7.9-7.6,20.6,0.3,28.3c6.8,6.7,17.3,7.5,24.9,2.4l0,75.5
	c0,3.5-1.8,5.8-2.9,6.9c-1.1,1.1-3.4,2.9-6.9,2.9c0,0,0,0,0,0l-75-0.1l23.4-23.4c15.3-15.3,16.5-39.5,2.8-56.3
	C57.7,353.4,40.5,304.2,41,253.9C42.1,135.9,139,40,257,40h0.4c11,0,20-8.9,20-20c0-11-8.9-20-20-20c-0.1,0-0.3,0-0.4,0
	C117.1,0,2.3,113.6,1,253.5c-0.6,59.6,19.8,117.9,57.4,164c0.7,0.9,0.7,2,0,2.7l-34.5,34.4c-9.6,9.6-12.5,23.9-7.3,36.5
	c5.2,12.6,17.4,20.7,31,20.7l90.7,0.1h0C151.5,512,164,506.8,173.4,497.4z"/>
</svg>
