<svg height="512pt" viewBox="0 0 512 512" width="512pt" xmlns="http://www.w3.org/2000/svg"><path d="m492 472h-105v-136c0-11.046875-8.953125-20-20-20s-20 8.953125-20 20v136h-39v-392c0-14.566406-3.933594-28.222656-10.761719-40h9.761719c22.054688 0 40 17.945312 40 40v95c0 11.046875 8.953125 20 20 20s20-8.953125 20-20v-95c0-44.113281-35.886719-80-80-80h-227c-44.113281 0-80 35.886719-80 80v408c0 .675781.0351562 1.34375.101562 2-.0664058.65625-.101562 1.324219-.101562 2 0 11.046875 8.953125 20 20 20h472c11.046875 0 20-8.953125 20-20s-8.953125-20-20-20zm-412-432h148c22.054688 0 40 17.945312 40 40v392h-228v-392c0-22.054688 17.945312-40 40-40zm109 233v-41c0-11.046875 8.953125-20 20-20s20 8.953125 20 20v41c0 11.046875-8.953125 20-20 20s-20-8.953125-20-20zm242.769531-61.945312c-7.761719-7.859376-7.683593-20.523438.175781-28.285157 7.859376-7.761719 20.523438-7.683593 28.285157.175781l37.320312 37.785157c19.207031 19.449219 19.207031 51.089843 0 70.535156l-37.320312 37.789063c-3.914063 3.960937-9.070313 5.945312-14.230469 5.945312-5.078125 0-10.15625-1.921875-14.054688-5.769531-7.855468-7.761719-7.9375-20.425781-.175781-28.285157l24.640625-24.945312h-89.410156c-11.046875 0-20-8.953125-20-20s8.953125-20 20-20h89.410156zm0 0"/></svg>