<?xml version="1.0" encoding="utf-8"?>
<!-- Generator: Adobe Illustrator 25.3.1, SVG Export Plug-In . SVG Version: 6.00 Build 0)  -->
<svg version="1.1" id="Layer_1" xmlns="http://www.w3.org/2000/svg" xmlns:xlink="http://www.w3.org/1999/xlink" x="0px" y="0px"
	 viewBox="0 0 512 512" style="enable-background:new 0 0 512 512;" xml:space="preserve">
<path d="M255,401c-11,0-20-9-20-20s9-20,20-20s20,9,20,20S266,401,255,401z M275,311v-26.9c38.7-9.4,65.5-44.4,63.9-84.1
	c-1.7-43.2-37.1-78.3-80.7-80c-23.3-0.9-45.3,7.5-61.9,23.5C180,159.3,171,180.4,171,203c0,11,9,20,20,20s20-9,20-20
	c0-11.6,4.6-22.5,13.1-30.7c8.7-8.4,20.3-12.8,32.7-12.3c22.8,0.9,41.4,19.1,42.2,41.5c0.8,20.9-13.6,39.4-34.3,43.9
	c-17.5,3.8-29.6,18.9-29.6,36.7V311c0,11,9,20,20,20S275,322,275,311z M388.5,475.1c9.4-5.7,12.5-18,6.7-27.5
	c-5.7-9.4-18-12.5-27.5-6.7C334.1,461.2,295.5,472,256,472c-119.1,0-216-96.9-216-216S136.9,40,256,40s216,96.9,216,216
	c0,42.6-12.7,84-36.6,119.9c-6.1,9.2-3.7,21.6,5.5,27.7c9.2,6.1,21.6,3.7,27.7-5.5C497,355.7,512,306.5,512,256
	c0-68.4-26.6-132.7-75-181S324.4,0,256,0S123.3,26.6,75,75S0,187.6,0,256s26.6,132.7,75,181s112.6,75,181,75
	C302.8,512,348.6,499.2,388.5,475.1z"/>
</svg>
