<?xml version="1.0" encoding="utf-8"?>
<!-- Generator: Adobe Illustrator 25.3.1, SVG Export Plug-In . SVG Version: 6.00 Build 0)  -->
<svg version="1.1" id="Capa_1" xmlns="http://www.w3.org/2000/svg" xmlns:xlink="http://www.w3.org/1999/xlink" x="0px" y="0px"
	 viewBox="0 0 512 512" style="enable-background:new 0 0 512 512;" xml:space="preserve">
<g>
	<g>
		<g>
			<path d="M305,148c11,0,20-9,20-20V90c0-11-9-20-20-20s-20,9-20,20v38C285,139,294,148,305,148z"/>
			<path d="M492,352c11,0,20-9,20-20V102c0-5.3-2.1-10.4-5.9-14.1l-82-82C420.4,2.1,415.3,0,410,0H80C35.9,0,0,35.9,0,80v352
				c0,44.1,35.9,80,80,80h352c44.1,0,80-35.9,80-80c0-11-9-20-20-20s-20,9-20,20c0,22.1-17.9,40-40,40V312c0-11-9-20-20-20H100
				c-11,0-20,9-20,20v160c-22.1,0-40-17.9-40-40V80c0-22.1,17.9-40,40-40v118c0,33.1,26.9,60,60,60h201c33.1,0,60-26.9,60-60V40h0.7
				l70.3,70.3V332C472,343,481,352,492,352z M120,332h272v140H120V332z M361,158c0,11-9,20-20,20H140c-11,0-20-9-20-20V40h241V158z"
				/>
		</g>
	</g>
</g>
</svg>
