<svg height="512pt" viewBox="-62 0 512 512" width="512pt" xmlns="http://www.w3.org/2000/svg"><path d="m347.996094 352.996094v-272.996094c0-22.058594-17.945313-40-40-40h-227.996094c-22.058594 0-40 17.941406-40 40v372.34375c0 5.511719 1.851562 10.125 5.507812 13.71875 3.882813 3.8125 9.527344 6.046875 15.140626 5.933594 5.566406-.097656 10.042968-1.960938 13.683593-5.703125l105.332031-108.246094c3.765626-3.867187 8.9375-6.050781 14.335938-6.050781s10.566406 2.183594 14.332031 6.050781l105.332031 108.246094c3.667969 3.769531 8.109376 5.632812 13.585938 5.703125 5.554688.09375 11.222656-2.191406 15.132812-6.054688 3.726563-3.679687 5.613282-8.371094 5.613282-13.945312 0-11.046875 8.953125-20 20-20s20 8.953125 20 20c0 16.199218-6.21875 31.261718-17.511719 42.410156-11.527344 11.382812-27.464844 17.796875-43.742187 17.585938-16.175782-.203126-30.609376-6.359376-41.746094-17.804688l-91-93.515625-90.996094 93.515625c-11.058594 11.363281-25.457031 17.519531-41.648438 17.804688-.355468.003906-.710937.007812-1.066406.007812-15.964844 0-31.515625-6.308594-42.8125-17.40625-11.265625-11.070312-17.472656-26.078125-17.472656-42.25v-372.34375c0-44.113281 35.886719-80 80-80h227.996094c44.113281 0 80 35.886719 80 80v272.996094c0 11.046875-8.953125 20-20 20s-20-8.953125-20-20zm-154-59c11.046875 0 20-8.953125 20-20v-60h60c11.046875 0 20-8.953125 20-20 0-11.042969-8.953125-20-20-20h-60v-59.996094c0-11.046875-8.953125-20-20-20-11.042969 0-20 8.953125-20 20v59.996094h-59.996094c-11.046875 0-20 8.957031-20 20 0 11.046875 8.953125 20 20 20h59.996094v60c0 11.046875 8.957031 20 20 20zm0 0"/></svg>